<svg id="Layer_2" data-name="Layer 2" xmlns="http://www.w3.org/2000/svg" viewBox="0 0 1831.41 3344.16">

  <!-- 
------ ชื่อจังหวัดและตัวย่อ ------
กระบี่  KBI
กรุงเทพมหานคร  BKK
กาญจนบุรี  KRI
กาฬสินธุ์  KSN
กำแพงเพชร  KPT
ขอนแก่น  KKN
จันทบุรี  CTI
ฉะเชิงเทรา  CCO
ชลบุรี  CBI
ชัยนาท  CNT
ชัยภูมิ  CPM
ชุมพร  CPN
เชียงราย  CRI
เชียงใหม่  CMI
ตรัง  TRG
ตราด  TRT
ตาก  TAK
นครนายก  NYK
นครปฐม  NPT
นครพนม  NPM
นครราชสีมา  NMA
นครศรีธรรมราช  NST
นครสวรรค์  NSN
นนทบุรี  NBI
นราธิวาส  NWT
น่าน  NAN
บึงกาฬ  BKN
บุรีรัมย์  BRM
ปทุมธานี  PTE
ประจวบคีรีขันธ์  PKN
ปราจีนบุรี  PRI
ปัตตานี  PTN
พะเยา  PYO
พระนครศรีอยุธยา  AYA
พังงา  PNA
พัทลุง  PLG
พิจิตร  PCT
พิษณุโลก  PLK
เพชรบุรี  PBI
เพชรบูรณ์  PNB
แพร่  PRE
ภูเก็ต  PKT
มหาสารคาม  MKM
มุกดาหาร  MDH
แม่ฮ่องสอน  MSN
ยโสธร  YST
ยะลา  YLA
ร้อยเอ็ด  RET
ระนอง  RNG
ระยอง  RYG
ราชบุรี  RBR
ลพบุรี  LRI
ลำปาง  LPG
ลำพูน  LPN
เลย  LEI
ศรีสะเกษ  SSK
สกลนคร  SNK
สงขลา  SKA
สตูล  STN
สมุทรปราการ  SPK
สมุทรสงคราม  SKM
สมุทรสาคร  SKN
สระแก้ว  SKW
สระบุรี  SRI
สิงห์บุรี  SBR
สุโขทัย  STI
สุพรรณบุรี  SPB
สุราษฎร์ธานี  SNI
สุรินทร์  SRN
หนองคาย  NKI
หนองบัวลำภู  NBP
อ่างทอง  ATG
อำนาจเจริญ  ACR
อุดรธานี  UDN
อุตรดิตถ์  UTT
อุทัยธานี  UTI
อุบลราชธานี  UBN

เกาะสมุย SNI_KOH_SAMUI
เกาะพงัน SNI_KOH_PHANGAN
เกาะยาวใหญ่ PNA_KOH_YAOYAI
เกาะยาวน้อย PNA_KOH_YAONOI
เกาะลันตา KBI_KOH_LANTA
เกาะพีพี KBI_KOH_PHIPHI
เกาะพระทอง PNA_KOH_PRATHONG
เกาะระ PNA_KOH_RA
เกาะช้าง TRT_KOH_CHANG

-->
  <defs>
    <style>
      .cls-1 {
        fill: #e6e6e6;
      }

      .cls-1,
      .cls-2,
      .cls-3,
      .cls-4,
      .cls-5,
      .cls-6 {
        stroke: #262626;
        stroke-miterlimit: 10;
        stroke-width: 2px;
      }

      .cls-2 {
        fill: #999;
      }

      .cls-3 {
        fill: #ccc;
      }

      .cls-4 {
        fill: #f2f2f2;
      }

      .cls-5 {
        fill: gray;
      }

      .cls-6 {
        fill: #b3b3b3;
      }
    </style>
  </defs>
  <g>
    <path class="cls-1" id="PKT" province="ภูเก็ต"
      d="M741.05,3131.41c1-1,0-10,0-10l-6,1-4,2-4-7s-5-1-6-1-1-8-2-9-6-8-6-8l-3,5,3,7-5,13,5,10-5,13,3,10v20l2,5s1,7,2,7h5c1,0,5-11,5-11l20-12s-9-15-9-17S740.05,3132.41,741.05,3131.41Z"
      transform="translate(-491.96 -318.56)" />
    <polygon class="cls-1" id="SNI_KOH_SAMUI" province="เกาะสมุย"
      points="605.16 2474.78 593.16 2479.78 586.15 2474.78 575.15 2477.78 572.15 2493.79 577.15 2496.79 576.15 2511.79 589.15 2512.79 604.16 2498.79 601.16 2491.79 609.16 2480.79 605.16 2474.78" />
    <path class="cls-1" d="M1098.12,2763.34l-3-14h-19l-5,7,6,12s14,4,15,4S1098.12,2763.34,1098.12,2763.34Z"
      id="SNI_KOH_PHANGAN" province="เกาะพงัน" transform="translate(-491.96 -318.56)" />
    <path class="cls-1" d="M765.05,3119.41v11l10,9v5l-3,4,2,9,3,2c1,0,3-3,3-3v-23l-3-5Z" id="PNA_KOH_YAOYAI"
      province="เกาะยาวใหญ่" transform="translate(-491.96 -318.56)" />
    <polygon class="cls-1" id="PNA_KOH_YAONOI" province="เกาะยาวน้อย"
      points="288.1 2789.84 284.1 2795.84 284.1 2798.85 290.1 2798.85 292.1 2789.84 290.1 2787.84 288.1 2789.84" />
    <path class="cls-1" d="M872.07,3220.43l1,14,7,18,4,2,3-7-6-11v-4l9-5,1-14s-13-3-14-3Z" id="KBI_KOH_LANTA"
      province="เกาะลันตา" transform="translate(-491.96 -318.56)" />
    <path class="cls-1" d="M853.07,3177.42l4,1v3s3,2,4,2,1-7,1-7-5-2-6-3S853.07,3177.42,853.07,3177.42Z"
      id="KBI_KOH_PHIPHI" province="เกาะพีพี" transform="translate(-491.96 -318.56)" />
    <polygon class="cls-1" id="PNA_KOH_PRATHONG" province="เกาะพระทอง"
      points="213.08 2594.81 220.09 2596.81 228.09 2584.8 221.09 2569.8 213.08 2568.8 213.08 2594.81" />
    <path class="cls-1" d="M716,2864.36s-9,9-9,10v7l4,1,3-6Z" transform="translate(-491.96 -318.56)" id="PNA_KOH_RA"
      province="เกาะระ" />
  </g>
  <path class="cls-2" id="CRI" province="เชียงราย"
    d="M1206.14,389.89l-10,59-6,12-11,3-2,12-8.05,8.93-.95,1.07,3.76,6.56-6.9,6.9h-10.43v6.52l-5.22,7.82L1135,511.1l-2.61,9.13-9.13,2.61-6.51-2.61v16.95l-19.56-1.31L1095.88,562l-10.43-1.3-3.91,3.91L1071.11,562l-10.28,5.14h0l-.3-.13h0l-9-11.53-6.52,3.92-4-.88h0l-7.75-1.72-3.92,2.61L1019,564.56l-6.52,1.3V575H996.79l-6.52-5.21-6.52-2.61V575s2.61,9.13,2.61,11.74-7.83,20.86-7.83,20.86l-2.61,13,5.22,11.73-5.22,6.52-1.3,5.22H966.8l-10.43,16.95-9.13,2.61L943.33,648l-10.43-6.52L923.77,618l7.82-15.65-.38-7.06-.92-17.71,1.3-10.43-5.21-7.82-2.61-17,5.21-7.82-5.21-3.91v-6.52L916,515l2.6-6.52,10.43-13,7.83,1.31L939.42,485l6.51-10.43,6.52-3.91-11.73-18.25,10.43-7.83v-6.52l13-11.73-1.3-6.52,6.52-2.61-2.61-7.82,17-5.22-6-11.29h.37l5-13-2.61-1.67-8.4-5.33,1-10-2-2-1-8-11-9v-8l4,1,31,14,7-3,9,7,11-8h10l5,4,13-28s12,1,13,1,7-4,7-4,9,10,9,11,6,1,7.59,1a1.14,1.14,0,0,1,.73.26l12.69,10.73,1,24,14,4,5-5-2-8,10-4,7-16,5-3h13l11,13,5,19,6,7h5v9s13,12,14,12,9-9,9-9Z"
    transform="translate(-491.96 -318.56)" />
  <path class="cls-2" id="PYO" province="พะเยา"
    d="M1206.71,641.49l9.13,14.34H1208l-17-5.21s-13,6.52-10.43,7.82,9.12,9.13,9.12,9.13l-6.52,9.13-10.43,2.6-5.21-1.3-6.52,10.43V695l-.26.52c-1.1,2.18-5.32,10.54-7.06,13.15a5.07,5.07,0,0,1-.51.67c-1.3,1.31-10.43-2.6-10.43-2.6l-14.34-2.61-6.52,5.21-2.16-2.16-3-3h-6.52l-4.69,3.74-1.83,1.47-10.43-5.21v-7.83l-5.22-7.82-7.82-1.3-17-18.26-9.13-5.21-11.74-1.31-3.91-13-9.13-1.3-3.91-18.25-6.52-6.52-6.52-20.87v-9.12L1010.78,575h1.65v-9.13l6.52-1.3,10.43-5.21,3.92-2.61,7.75,1.72h0l4,.88,6.52-3.92,9,11.53.17.21.14-.08h0l10.28-5.14,10.43,2.61,3.91-3.91,10.43,1.3,1.31-26.08,19.56,1.31V520.23l6.51,2.61,9.13-2.61,2.61-9.13,14.34,2.61,5.22-7.82v-6.52H1165l6.9-6.9.25.44,5,3v5l-5,5,2,4,5,7,8,4v15l10.09,5.61,7.92,4.39,5.49-.91v7.83l-7.83,2.6V562l-15.64,6.52v9.13h6.52l9.12,6.52,1.31,6.52,9.12-3.91v14.34s-2.6,1.3-2.6,2.61,5.21,7.82,5.21,7.82l2.61,24.77Z"
    transform="translate(-491.96 -318.56)" />
  <path class="cls-2" id="NAN" province="น่าน"
    d="M1375.16,662.94l-12,6,1,9-10,10,1,30-6,7,11,11-11,16-9,2v12l-16,8-2,10-10,10,.5,1.15,5.25,12.28h0c-3,5.39-8.11,14-10.8,14h-11.73L1281,839.68l2.6,11.74S1268,877.5,1265.39,877.5s-5.22-2.61-7.82,0-10.43,13-10.43,13h-15.65L1215.84,884l-13,1.3-6.52,7.82H1168.9l0-.57-1.28-25.51,11.73-9.12-2.61-13,10.44-15.65-2.61-13,15.64-17-1.3-18.25s-5.21,3.91-7.82,3.91-13-3.91-13-3.91l-10.43,3.91v-13l-7.83-11.73,2.61-11.74L1155.86,738l9.13-11.74-11.23-17.62c1.74-2.61,6-11,7.06-13.15l.26-.52v-6.52L1167.6,678l5.21,1.3,10.43-2.6,6.52-9.13s-6.52-7.82-9.12-9.13,10.43-7.82,10.43-7.82l17,5.21h7.82l-9.13-14.34,11.74-5.22-2.61-24.77s-5.21-6.52-5.21-7.82,2.6-2.61,2.6-2.61V586.73l-9.12,3.91-1.31-6.52-9.12-6.52h-6.52v-9.13L1202.8,562v-6.52l7.83-2.6V545l.5-.09,4-11s10-2,11-1,17,8,22,15c5-3,24-23,24-23l5-10,16,2,14-1,18,13,18,1,3-9,17,9-4,23-14-1,1,11-5,6,2,12,11,5-5,5,8,13-2,30,24,17Z"
    transform="translate(-491.96 -318.56)" />
  <path class="cls-2" id="CMI" province="เชียงใหม่"
    d="M969.41,417.22l-6.52,2.61,1.3,6.52-13,11.73v6.52l-10.43,7.83,11.73,18.25-6.52,3.91L939.42,485l-2.61,11.74L929,495.45l-10.43,13L916,515l7.82,9.13v6.52l5.21,3.91-5.21,7.82,2.61,17,5.21,7.82-1.3,10.43.92,17.71.38,7.06L923.77,618l9.13,23.47L943.33,648l3.91,15.65-6.52,6.52,2.61,23.47-6.52,6.52.74,6L939.42,721l-7.83,15.65,2.61,5.21-2.61,5.22,6.52,10.43-10.43,15.64-20.86-14.34,3.91-6.52-1.3-9.13-6.52-3.91-1.31-6.52-10.43-1.3L886,735.37l-14.35,6.52-9.12-2.61-2.61,9.13h-5.22l-7.82,7.82-1.31,10.43L839,775.79h-9.13l-22.17,18.26H796l-6.52,15.64,2.6,7.83-2.6,7.82,19.56,13,1.3,15.65,6.52,6.52-1.3,20.86-3.92,7.82,1.31,5.22,7.82,1.3,7.82,30-2.6,3.91v9.13l-.45.19-.35.15-.22.09c-1.21.51-3.33,1.38-5.26,2.14l-.67.26a17.68,17.68,0,0,1-3.48,1.08c-1.31,0-7.83-7.82-7.83-7.82L805.11,944l-14.55-1.21-1.09-.09-5.22-7.82-6.52,5.21-2.61,6.52-6.52-6.52s-3.91,3.91-5.21,3.91-7.82-5.21-7.82-5.21l-5.22-2.61-3.91,6.52,9.13,35.21,1.3,20.86-3.91,17,7.82,13-3.91,11.73,5.22,9.13-2.61,11.74-20.86,2.6-9.13,6.52-9.13-1.3-2.61-7.82-9.12-5.22,1.3-13-6.52-6.52v-5.21l6.52-2.61-2.61-20.86-3.91-11.74H693s-7.82,5.22-9.13,6.52-14.34,0-15.65-1.3-11.73-20.87-11.73-20.87l.91-.74,13.43-11-1.3-20.86-9.13-5.22-5.21-5.21-2.61-7.83-13-10.43s2.61-6.52,2.61-7.82c0-.35,1-1.08,2.57-2,4.12-2.38,11.77-5.87,11.77-5.87l13,6.52,9.13-10.43,11.73-1.3,2.61-7.83,9.13-13-13-2.61-6.52,1.3-2.61-6.52-6.52-3.91-1.3-9.13,3.91-6.52-6.52-7.82v-13h7.82l6.52-2.61-2.61-7.82L665.6,807.09l-1.31-6.52-10.43-3.92L665.6,777.1l7.82-1.31L687.76,768V757.54l-15.64-9.13H661.69l1.3-9.13-6.52-14.34,7.82-7.82-6.52-5.22-1.3-13,7.82-13s6.52-2.6,9.13-2.6,5.22-28.69,5.22-28.69S693,638.88,693,636.27V624.54l19.56,1.3,2.61,14.35,14.34,15.64,7.82-2.6s20.86,3.91,22.17,3.91,22.16-14.35,22.16-14.35l-5.21-18.25s-11.74-7.82-13-9.13,9.13-19.56,9.13-19.56L766,572.38s3.91-5.21,3.91-6.52V546.31l-6.52-3.92,1.3-6.52-7.82-7.82,1.3-6.52-2.6-6.52-7.83-1.3-6.52-6.52-1.46-7.32,1.29,0,9-4s10,9,11,10,5-10,5-10h10l19-14,15,6,14-15,5.4,4.23,8.6,6.77h8c1,0,4,5,4,5l8-1-1-8,7-6v-28h4l-2-12,5-7-2-6,5-16h14l6-8,61,10s14-5,14-6,2-8,2-8h6.63l6,11.29-17,5.22Z"
    transform="translate(-491.96 -318.56)" />
  <path class="cls-2" id="MSN" province="แม่ฮ่องสอน"
    d="M781.64,642.79s-20.86,14.35-22.16,14.35-22.17-3.91-22.17-3.91l-7.82,2.6-14.34-15.64-2.61-14.35L693,624.54v11.73c0,2.61-14.34,18.26-14.34,18.26s-2.61,28.69-5.22,28.69-9.13,2.6-9.13,2.6l-7.82,13,1.3,13,6.52,5.22-7.82,7.82L663,739.28l-1.3,9.13h10.43l15.64,9.13V768l-14.34,7.82-7.82,1.31-11.74,19.55,10.43,3.92,1.31,6.52,15.64,11.73,2.61,7.82-6.52,2.61h-7.82v13l6.52,7.82-3.91,6.52,1.3,9.13,6.52,3.91,2.61,6.52,6.52-1.3,13,2.61-9.13,13-2.61,7.83-11.73,1.3-9.13,10.43-13-6.52s-7.65,3.49-11.77,5.87c-1.53.88-2.57,1.61-2.57,2,0,1.3-2.61,7.82-2.61,7.82l13,10.43,2.61,7.83,5.21,5.21,9.13,5.22,1.3,20.86-13.43,11c-5-4-12.65-10.12-12.65-11,0-1.31-5.21-22.17-5.21-22.17l-9.13-18.25h-13v9.13L610.83,944l-14.34,2.61L587.36,944l-5.26,3L575,937h-6l-5-15a51,51,0,0,1,14-17,57.45,57.45,0,0,0,1-10l-7-14h-5V859l-16-18,7-12-4-6-13-5-3,3-2,7-8,6-12-14V803l-23-33,2-15h3s2,8,3,9c.77.77,3.91.95,5.32,1a1.19,1.19,0,0,1,1,.64L514,779c1,2,6,1,6,1l2-3,6,1,1,4,8-3v-6l18-3v-5l4-1,2-3,27,1V733l-5-5-2-37-18-13,16-9,1-15s5-3,6-3,1-7,2-6,14-5,14-5l1-30-14-12,7-18-5-10,22-23-7-8v-7l6-6s18-1,19-1,1-12,2-12,14-2,14-2-4-14-4-15,2-21,2-21l12-1,5,10s5-5,6-5,14,13,15,13,6,1,6,1,1,12,2,12h6l11-6,31.72,1,1.46,7.32,6.52,6.52,7.83,1.3,2.6,6.52-1.3,6.52,7.82,7.82-1.3,6.52,6.52,3.92v19.55c0,1.31-3.91,6.52-3.91,6.52l6.52,23.47s-10.43,18.26-9.13,19.56,13,9.13,13,9.13Z"
    transform="translate(-491.96 -318.56)" />
  <path class="cls-2" id="UTT" province="อุตรดิตถ์"
    d="M1341.16,852l-6,16,6,12-14,17-1,10-21,16,2,11-6,3,1,10-6,3,.09.52.91,5.48.64.13-5,10H1281l-3.92-2.61-7.82,2.61V974L1255,984.42l-3.91,10.43-32.6,18.25-5.22,15.65-19.55,3.91-6.52-3.91-7.83,1.3h-9.12l-11.74,9.13h-5.22l-7.82,2.61-5.21,24.77-9.13,11.74-18.26,5.21-24.77,2.61h-13v-10.43l-5.21-7.82,3.91-7.83,7.82-5.21-1.3-9.13-.43-4.3-.88-8.74,3.91-3.91v-10.43l-16.95-10.43V988.33l7.83-9.13-1.31-15.65-11.73-13,2-4.92.64-1.6h9.12l5.22-3.91v-7.82l9.13-1.3.09,0h0l.34.14.24.09.28.11.26.1.25.09c.56.22,1.23.48,2,.74l.34.12.68.24c.23.07.46.15.66.23l.51.17.73.22.39.11a4.65,4.65,0,0,0,1.1.21c1.3,0,14.34-5.21,14.34-5.21l23.47-20.86,9.13-2.61L1152,920.52l7.82-6.51-3.91-14.35,13-7.09,0,.57h27.38l6.52-7.82,13-1.3,15.65,6.51h15.65s7.82-10.43,10.43-13,5.21,0,7.82,0,18.25-26.08,18.25-26.08l-2.6-11.74,14.34-18.25h11.73c2.69,0,7.85-8.63,10.8-14l.25.56,21,8-7,20,4,9,6,1Z"
    transform="translate(-491.96 -318.56)" />
  <path class="cls-2" id="PRE" province="แพร่"
    d="M1187.16,829.25l-10.44,15.65,2.61,13-11.73,9.12,1.28,25.51-13,7.09,3.91,14.35-7.82,6.51-10.43-15.64-9.13,2.61-23.47,20.86s-13,5.21-14.34,5.21a4.65,4.65,0,0,1-1.1-.21l-.39-.11-.73-.22-.51-.17c-.2-.08-.43-.16-.66-.23l-.68-.24-.34-.12c-.72-.26-1.39-.52-2-.74l-.25-.09-.26-.1-.28-.11-.24-.09-.34-.14h0l-.09,0-9.13,1.3v7.82l-5.22,3.91h-9.12l-.64,1.6-5.88-4.2-19.56-1.31-20.86,19.56-9.13-16.95-15.65-5.21-14.34,3.91L961.5,959.2h0l-3.83,4.34-14.34,1.31-1.53-7.62-2.38-11.94s24.77-24.78,24.77-26.08a13.19,13.19,0,0,1,1.3-3.91L989,895.75l-1.3-7.82,7.82-5.22,16.95,1.31,7.83-9.13,15.64-28.69,15.65-17h7.82l10.44-22.16,13-6.52V790.13l5.22-5.21,3.91-19.56,13-2.61v-9.12l-3.91-6.52,3.91-7.83-3.91-14.34,3.91-9.13.53-8,4.69-3.74h6.52l3,3,2.16,2.16,6.52-5.21,14.34,2.61s9.13,3.91,10.43,2.6a5.07,5.07,0,0,0,.51-.67L1165,726.24,1155.86,738l6.52,10.43-2.61,11.74,7.83,11.73v13L1178,781s10.43,3.91,13,3.91,7.82-3.91,7.82-3.91l1.3,18.25-15.64,17Z"
    transform="translate(-491.96 -318.56)" />
  <path class="cls-2" id="LPG" province="ลำปาง"
    d="M1105,715.81l-3.91,9.13,3.91,14.34-3.91,7.83,3.91,6.52v9.12l-13,2.61-3.91,19.56-5.22,5.21v10.44l-13,6.52-10.44,22.16h-7.82l-15.65,17-15.64,28.69-7.83,9.13-16.95-1.31-7.82,5.22,1.3,7.82-23.47,19.56a13.19,13.19,0,0,0-1.3,3.91c0,1.3-24.77,26.08-24.77,26.08l2.38,11.94,1.53,7.62,14.34-1.31,3.83-4.34,1.39,8.25s-3.92,13-3.92,14.35v7.82l-5.21,10.43,1.3,6.52-5.21,13,5.21,7.82,1.31,11.74s5.21,3.91,6.52,5.21-2.61,14.35-2.61,14.35l-1.31,7.82-13,13-14.34-13-1.64-.7-7.49-3.21-5.21-20.86V1034h-9.13L899,1048.31h-9.12l-5.22-6.52h-9.13l-22.16-23.47h-9.13l-3.83-13.41-1.38-4.85v-7.82l-6.52-6.52,3.91-9.13,18.25,1.31,9.13,7.82,5.21-3.91,1.31-11.74,1.19-2,7.94-13.62,6.52-5.22-2.61-6.52,1.3-5.21h10.43V931l2.61-5.22-7.82-10.43H882l-1.3-9.13-5.22-3.91,2.61-9.13s-2.61-11.73-3.91-13-3.91-28.68-3.91-28.68l-9.13-13,7.82-3.91,6.52-3.91,7.83,2.6,1.3-6.52,7.83-5.21,1.3-9.13L912,790.13l2.61-10.43,11.74,2.61,5.21-3.91-2.27-7.68,8.79-13.18-6.52-10.43,2.61-5.22-2.61-5.21L939.42,721l-1.87-14.88-.74-6,6.52-6.52-2.61-23.47,6.52-6.52,9.13-2.61L966.8,644.1h7.82l1.3-5.22,5.22-6.52-5.22-11.73,2.61-13s7.83-18.26,7.83-20.86S983.75,575,983.75,575v-7.82l6.52,2.61,6.52,5.21h14l1.65,18.26v9.12l6.52,20.87,6.52,6.52,3.91,18.25,9.13,1.3,3.91,13,11.74,1.31,9.13,5.21,17,18.26,7.82,1.3,5.22,7.82v7.83l10.43,5.21,1.83-1.47Z"
    transform="translate(-491.96 -318.56)" />
  <path class="cls-2" id="LPN" province="ลำพูน"
    d="M931.59,778.4l-5.21,3.91-11.74-2.61L912,790.13,893.78,812.3l-1.3,9.13-7.83,5.21-1.3,6.52-7.83-2.6L869,834.47l-7.82,3.91,9.13,13s2.61,27.38,3.91,28.68,3.91,13,3.91,13l-2.61,9.13,5.22,3.91,1.3,9.13h7.83l7.82,10.43L895.08,931v6.52H884.65l-1.3,5.21,2.61,6.52-6.52,5.22-7.94,13.62-1.19,2L869,981.81l-5.21,3.91-9.13-7.82-18.25-1.31-3.91,9.13,6.52,6.52v7.82l1.38,4.85-7.9,9.5-10.44-5.22s-18.25,9.13-19.55,10.43-13,5.22-13,5.22l3.91-16.95-3.91-18.26V974l3.91-3.91h7.82l1.31-6.52-13-16.95,1.09-3.82L805.11,944l2.61-9.12s6.52,7.82,7.83,7.82a17.68,17.68,0,0,0,3.48-1.08l.67-.26c1.93-.76,4-1.63,5.26-2.14l.22-.09.35-.15.45-.19v-9.13l2.6-3.91-7.82-30-7.82-1.3-1.31-5.22,3.92-7.82,1.3-20.86L810.33,854,809,838.38l-19.56-13,2.6-7.82-2.6-7.83L796,794.05h11.73l22.17-18.26H839l6.51-9.13,1.31-10.43,7.82-7.82h5.22l2.61-9.13,9.12,2.61L886,735.37l5.21-3.91,10.43,1.3,1.31,6.52,6.52,3.91,1.3,9.13-3.91,6.52,20.86,14.34,1.64-2.46Z"
    transform="translate(-491.96 -318.56)" />
  <path class="cls-3" id="TAK" province="ตาก"
    d="M966.8,1146.1l-.68,1.09-5.84,9.34H944.63l-1.3,13H929l-5.21,7.82,2.61,9.13-13,24.77v22.17H902.91l-18.26,15.65H867.7l-6.52-5.22-3.91,2.61v5.21l6.52,7.83s-1.3,7.82-1.3,9.13,9.12,5.21,9.12,5.21L869,1296.05l7.83,13L869,1324.73l7.83,2.61,7.82,15.65s-9.13,20.86-9.13,22.16,3.92,9.13,3.92,9.13l-.37,5.45-.86,13-.08,1.1,11.74,10.43v18.26l-7.83,7.82v18.25l-11.73,6.52,1.3,7.83,5.22,9.12-5.22,7.83,2.61,16.95-6.52,10.43L869,1519l-6.51,9.13-2.61,24.77-11.74-22.16-13-3.91-2.6-10.43L806.42,1489v-10.43c0-.22-.3-.54-.8-.95-2.44-2-9.63-5.57-9.63-5.57l1.3-6.52-15.65-22.16h-9.12l-5.22-6.52-6.57-1.32-1.68-9.47.75-2.2,13.25-38.8h-5l-2-10,6-13-11-14,6-8,7,9,2-6,8-1v-10l8-6,20,2,4,6,9-7,1-22,13-7,1-11,5-3-6-6,2-9-9-9-13,1-9,17-9-1-7,19-7-1-3-18-4-2,3-10-6-2,6-11-18-22,2-9-8-11h-9l1-11-10-6-1-9,8-10-1-11,8-9v-8l-11-8-1-9-13-13h-17l-9-10-1-12-40-39v-17h-6l-9-9,1-6-13-14h-6l-11-9-1-7-32-32,1-7-4.92-7,5.26-3,9.13,2.61L610.83,944l6.52-6.51v-9.13h13l9.13,18.25s5.21,20.86,5.21,22.17c0,.87,7.63,7,12.65,11l-.91.74s10.43,19.56,11.73,20.87,14.35,2.6,15.65,1.3,9.13-6.52,9.13-6.52h10.43l3.91,11.74,2.61,20.86-6.52,2.61v5.21l6.52,6.52-1.3,13,9.12,5.22,2.61,7.82,9.13,1.3,9.13-6.52,20.86-2.6,2.61-11.74-5.22-9.13,3.91-11.73-7.82-13,3.91-17-1.3-20.86-9.13-35.21,3.91-6.52,5.22,2.61s6.52,5.21,7.82,5.21,5.21-3.91,5.21-3.91l6.52,6.52,2.61-6.52,6.52-5.21,5.22,7.82,1.09.09-1.09,3.82,13,16.95-1.31,6.52h-7.82L789.47,974v15.65l3.91,18.26-3.91,16.95s11.73-3.92,13-5.22,19.55-10.43,19.55-10.43l10.44,5.22,7.9-9.5,3.83,13.41h9.13l22.16,23.47h9.13l5.22,6.52H899l9.13-14.35h9.13v7.83l5.21,20.86,7.49,3.21-1,28.08,2.61,11.74h7.83l7.82,3.91-2.61,9.13,10.43,13h5.22l2,4.35Z"
    transform="translate(-491.96 -318.56)" />
  <path class="cls-4" id="STI" province="สุโขทัย"
    d="M1103.71,1133.06v15.65s-6.52,6.52-9.13,5.21-13-1.3-13-1.3l-1.3,5.21-11.74,2.61v9.13l-10.38,5.19-5.27,2.63-2.5,15-.1.61s-3.91-2.61-5.22-2.61-15.65,9.13-15.65,9.13l-6.52-13-7.82,5.22-19.56-9.13-10.43-13v-9.13l-5.21-1.3-2.61,6.52-2.61,2.61-7.82-20.87-.68-.21.68-1.09-4.54-10-2-4.35h-5.22l-10.43-13,2.61-9.13-7.82-3.91h-7.83L929,1093.94l1-28.08,1.64.7,14.34,13,13-13,1.31-7.82s3.91-13,2.61-14.35-6.52-5.21-6.52-5.21l-1.31-11.74-5.21-7.82,5.21-13-1.3-6.52L959,989.63v-7.82c0-1.31,3.92-14.35,3.92-14.35l-1.39-8.25h0l15.73-17.81,14.34-3.91,15.65,5.21,9.13,16.95,20.86-19.56,19.56,1.31,5.88,4.2-2,4.92,11.73,13,1.31,15.65-7.83,9.13v19.56l16.95,10.43v10.43l-3.91,3.91.88,8.74.43,4.3,1.3,9.13-7.82,5.21-3.91,7.83,5.21,7.82v9.78l-6.52,3.26v7.82l5.22,6.52,2.6,5.22,7.83,6.52v6.51C1084.15,1122.63,1103.71,1133.06,1103.71,1133.06Z"
    transform="translate(-491.96 -318.56)" />
  <path class="cls-5" id="BKN" province="บึงกาฬ"
    d="M1996.88,890.53l-9.13,6.52s5.21,14.35,5.21,18.26-7.82,13-7.82,13S1972.1,914,1970.8,914s-10.43,14.34-10.43,14.34l3.91,9.13-3.43,4.57-4.39,5.86-11.74-5.22-3.91-13-10.43-7.82-15.65,6.52-8.46-12.7-4.58-6.86-11.73-1.3-2.61-3.92-7.82-2.6-2.61-10.44-19.56-11.73-6.52,2.61,1.3,14.34H1843l-3.92,6.52-10.43-5.22v-9.12l-4.14-.46-7.59-.85-6.52-19.56,9.13-7.82-1.31-9.13-11.73-13-10.43-2.61,11.73-9.13-.73-.3.17-.07-2.48-2.68L1795.25,812l12-16,24-4,14,7,26,1s19,16,22,16,31,2,31,2,1,12,4,12,23-10,23-10l26,24s-2,13,11,28c1.76,2,3.46,4,5.06,5.86,10.23,11.91,17,20.14,17,20.14s.36,1.07,1,2.82Z"
    transform="translate(-491.96 -318.56)" />
  <path class="cls-5" fill="red" d="M1831.44,928.63a17.57,17.57,0,0,1-2.17,4.53Z"
    transform="translate(-491.96 -318.56)" />
  <path class="cls-5" id="LEI" province="เลย"
    d="M1528.78,1139.58l7.82,13-16.95,10.43h-10.43s-4.23,2.46-9.69,5.57c-.59.34-1.17.68-1.79,1l-2,1.14-.71.4c-.17.11-.34.2-.51.29l-1.76,1-.28.17-1.53.84q-.59.35-1.17.66l-.35.19-2.23,1.23-.34.18-1,.51a.44.44,0,0,1-.18.09c-.27.16-.53.3-.81.44-4.86,2.62-8.75,4.55-9.59,4.55l-.51,0c-3.23.26-12.61,2.58-13.84,2.58s-6.52-6.52-6.52-6.52l2.61-9.12s-5.21-5.22-5.21-6.52a56,56,0,0,0-1.31-6.52l1.31-9.13v-3.91l-3.91-1.31-1.31-14.34-3.91-9.13-6.52,1.31-1.3,9.12-10.43,3.92-9.13-7.83v-9.12l-11.74-6.52v-7.83l-3.91-7.82-10.43-6.52-11.74,2.61-17,15.64-5.21-1.3-2.61,9.13-6.52-2.61-19.56,11.73-2.6,26.08-9.13,3.91-7.83-9.12,3.92-3.91,1.3-36.51,5.22-5.22-1.31-10.43,5.22-6.52.1-.31,2.51-7.51-5.22-10.43s-10.43-1.31-14.34-3.92-6.52-9.12-6.52-9.12h-17v-24.78l-5.22-2.61-9.13,2.61-2.6-6.52,9.12-9.12-2.6-9.13,7.82-6.52,9.13,5.21,5.72-2.85-.13.4h9l11,15h9l2,6h7l3,5,1-.34,2-.65,1-8,3-1,1-6s7-2,8-2,17-21,17-21l1-7h6l11-10,5,1,17-16,2,8,5-10s10,0,11-1-4-10-4-10l6-11,3,5,8-11,22-3,12-38,8.59,4.31,11.41,5.69,9-1,11-18,16-10V849l9-4h6.51l.71,13L1534,863.15v17l1.22.36-5.13,8.77v7.82l-5.21,5.22,7.82,23.47L1530.08,944l-5.21,10.44,1.52,8.15,2.39,12.71,7.82,1.3,1,1.58,12.05,19.28v15.65l-14.34,9.13-15.65-1.31-1.3,9.13,6.52,11.74-2.61,7.82-5.22,3.91,20.86,22.17-2.6,6.52-5.22-5.22-5.21,5.22,5.21,5.21-1.3,6.52,14.34,9.13v9.13l2.35,1.88,10.69,8.55-23.47,13Z"
    transform="translate(-491.96 -318.56)" />
  <path class="cls-5" id="NKI" province="หนองคาย"
    d="M1832.59,924.44a20.11,20.11,0,0,1-1.15,4.19l-2.17,4.53c-.22.26-.41.4-.6.4-1.3,0-6.52-6.52-9.12-5.21s-9.13,9.13-9.13,9.13l-17-17-13,7.83s-2.61,7.82-6.52,9.13-17-17-17-17l-13,1.31-3.91-3.91-2.61,13-3.91,6.52-13-13-9.13,5.21-6.52,11.74,5.22,6.52-5.22,19.55H1697l-5.22,14.35-14.34,6.52-5.21-3.91s-7.83,3.91-9.13,3.91-13-5.22-13-5.22l5.22-15.65-15.65-13-16.95-1.31-5.22-15.64L1607,929.65v-9.13l-20.86-9.12-14.34-18.26-17,2.61-11.74-13-7.91-2.25-1.22-.36v-17l10.43-5.21-.71-13h3.49l2,3,11,2v11l1.21,1.06,23.8,21,13,2,20,17,38,5v12l-7,14h10l9,9,6-5-4-8,10-5,8-5,3-8,38-17,15,8,13-10V872l16-17,5-20,28.84-9.94.73.3-11.73,9.13,10.43,2.61,11.73,13,1.31,9.13-9.13,7.82,6.52,19.56,7.59.85,4.14.46v9.12l1,.51-1,3.41S1832.59,923.13,1832.59,924.44Z"
    transform="translate(-491.96 -318.56)" />
  <path class="cls-5" id="UDN" province="อุดรธานี"
    d="M1888.65,1103.07l-2.6,18.25-.49-.65-3.43-4.56-5.21-9.13-14.35-1.3-9.12,11.73,2.61,7.83-3.92,19.56-9.12,18.25-7.83,9.13-3.91-17-5.21-5.22-9.13-1.3-14.79-4.93-.86-.29-5.21-5.21-5.22-1.31-3.91,2.61h-6.52l-7.82-2.61-6.52,2.61-2.43,8.5-.18.63-33.9,17-9.13-2.61-6.52-7.82-5.22,2.6-6.51-2.6-1.31-15.65,1.31-6.52-5.22-7.82-10.43-6.52-10.43-9.13-5.22,11.73-1.3,9.13-.58-.3L1650,1120s-13-14.34-14.34-15.65a2.69,2.69,0,0,1-.43-1.16c0-.14-.07-.3-.09-.47-.19-1.09-.33-2.62-.45-4.31,0-.33,0-.67,0-1,0-.17,0-.35,0-.53s0-.44,0-.65c0-.56,0-1.12-.06-1.68-.07-1.62-.09-3.22-.12-4.58,0-.65,0-1.25,0-1.77,0-1.28,0-2.09,0-2.09l2.61-10.43v-7.82s-7.82-6.52-9.13-6.52-10.43-1.31-10.43-1.31l-1.3-15.65s-23.47-44.33-24.78-45.63,0-17,0-17V971.38h-7.82c-1.3,0-2.61,3.91-2.61,3.91h-14.34c-1.3,0-11.73-2.61-11.73-2.61l-3.92,6.52-13.35-1-1-1.58-7.82-1.3-2.39-12.71-1.52-8.15,5.21-10.44,2.61-18.25-7.82-23.47,5.21-5.22v-7.82l5.13-8.77,7.91,2.25,11.74,13,17-2.61,14.34,18.26,20.86,9.12v9.13l10.43,7.83,5.22,15.64,16.95,1.31,15.65,13L1650,983.11s11.73,5.22,13,5.22,9.13-3.91,9.13-3.91l5.21,3.91,14.34-6.52,5.22-14.35h7.82l5.22-19.55-5.22-6.52,6.52-11.74,9.13-5.21,13,13,3.91-6.52,2.61-13,3.91,3.91,13-1.31s13,18.26,17,17,6.52-9.13,6.52-9.13l13-7.83,17,17s6.52-7.83,9.13-9.13,7.82,5.21,9.12,5.21c.19,0,.38-.14.6-.4l-5.81,12.14,9.13,13v26.08l-2.61,6.52-9.13,1.3-15.65,17-2.6,17,5.21,9.13-2.61,5.21-6.52,15.65,5.22,9.13,11.73,1.3,5.4,3.6h0l2.41,1.62,15.64,5.21,5.22-3.91,19.56,14.34,9.13-1.3,9.12,14.34Z"
    transform="translate(-491.96 -318.56)" />
  <path class="cls-5" id="SNK" province="สกลนคร"
    d="M2056.86,1078.3l-10.44,10.43,5.22,7.82-7.82,6.52-3.92,9.13,7.83,6.52-1.31,6.52-3.93,2.15-10.41,5.67-1.3,7.82-13,9.13-1.31,2.61-14.34,2.61-5.21-1.31-6.52-1.3-2.61,2.61,1.3,7.82-9.12,6.52-6.52-7.82h-7.83l-13,7.82v9.13l-24.77-14.35-2.61-6.52-9.13-1.3-1.3-17-7.82-7.82h-5.22l-1.3-6.52-2.61-5.22-11.73,2.61-.49-2,.49.65,2.6-18.25-6.52-2.61-9.12-14.34-9.13,1.3-19.56-14.34-5.22,3.91-15.64-5.21-2.41-1.62h0l-5.4-3.6-11.73-1.3-5.22-9.13,6.52-15.65,2.61-5.21-5.21-9.13,2.6-17,15.65-17,9.13-1.3,2.61-6.52V958.34l-9.13-13,5.81-12.14,2.17-4.53a20.11,20.11,0,0,0,1.15-4.19c0-1.31-3.92-23.47-3.92-23.47l1-3.41,9.41,4.71,3.92-6.52h9.12l-1.3-14.34,6.52-2.61,19.56,11.73,2.61,10.44,7.82,2.6,2.61,3.92,11.73,1.3,4.58,6.86,8.46,12.7,15.65-6.52,10.43,7.82,3.91,13,11.74,5.22,4.39-5.86,11.25,7.16,6.52,11.74v10.43l-1.3,5.21h-6.52v9.13l3.91,9.13-5.22,3.91v9.13l-3.91,7.82,9.13,19.56,7.82-1.31,6.52,2.61,6.52-1.3,5.22-7.83s6.52,3.92,9.13,3.92,14.34-3.92,14.34-3.92l31.29,1.31-3.91,11.73,3.91,6.52-3.91,14.35,5.22,5.21Z"
    transform="translate(-491.96 -318.56)" />
  <path class="cls-5" id="NPM" province="นครพนม"
    d="M2139.21,1090.25l-16.9,35.78.6,2.79,7.41,34.22-7,6,.16.58-4-1.34-5.21,6.51-9.13-1.3-6.52-15.65h-15.65s-9.12,7.83-11.73,7.83-7.82-7.83-7.82-7.83l-10.44-2.6-9.12,3.91-9.13,5.21-13-3.91-4.15-10,.24-.47,13-9.13,1.3-7.82,10.41-5.67,3.93-2.15,1.31-6.52-7.83-6.52,3.92-9.13,7.82-6.52-5.22-7.82,10.44-10.43v-11.74l-5.22-5.21,3.91-14.35-3.91-6.52,3.91-11.73-31.29-1.31s-11.74,3.92-14.34,3.92-9.13-3.92-9.13-3.92l-5.22,7.83-6.52,1.3-6.52-2.61-7.82,1.31-9.13-19.56,3.91-7.82v-9.13l5.22-3.91-3.91-9.13v-9.13h6.52l1.3-5.21V961l-6.52-11.74-11.25-7.16,3.43-4.57-3.91-9.13S1969.49,914,1970.8,914s14.34,14.34,14.34,14.34,7.82-9.13,7.82-13-5.21-18.26-5.21-18.26l9.13-6.52,14.37,10.27c2.71,8,10.4,30,12,29.19,2-1,18,9,18,9l23,36,54,33s17,24,19,26,2,51.81,2,55.77A1.29,1.29,0,0,1,2139.21,1090.25Z"
    transform="translate(-491.96 -318.56)" />
  <path class="cls-5" id="MDH" province="มุกดาหาร"
    d="M2177.41,1293.8l-5.81,4.85h-6.52l-7.82,6.52s-1.69,1.07-3.92,2.53c-2.62,1.75-6,4-8.18,5.73l-.38.28a8.52,8.52,0,0,0-1.83,1.75.48.48,0,0,0,0,.15c0,.32-1,.32-2.64.14h0c-4.77-.56-14.29-2.75-14.29-2.75l-11.73-5.22-5.22-6.52-5.21,6.52-9.13-3.91-9.13-9.13-2.61-9.12h-7.82l-.53-.71-3.38-4.51-15.65-2.61h-7.82l-7.83,5.22-1-.31-6.87-2.3,1.31-18.25-5.22-14.35-5.22,6.52-6.52,3.91-.2-.61-2.4-7.21v-14.34l-11.74-18.26v-11.73l-9.13-14.34v-9.13l-13-9.13v-3.91l9.12-6.52-1.3-7.82,2.61-2.61,6.52,1.3,5.21,1.31,14.34-2.61,1.07-2.14,4.15,10,13,3.91,9.13-5.21,9.12-3.91,10.44,2.6s5.21,7.83,7.82,7.83,11.73-7.83,11.73-7.83h15.65l6.52,15.65,9.13,1.3,5.21-6.51,4,1.34,7.83,26.43-7,27v11l21,18,12,25,9.1,7.59Z"
    transform="translate(-491.96 -318.56)" />
  <path class="cls-5" id="NBP" province="หนองบัวลำภู"
    d="M1670.9,1138.28s-18.25,41.72-19.56,41.72-22.16-9.13-22.16-9.13l-13,2.61-7.83-3.91-11.73,1.3-2.61-10.43-5.21-6.52-11.74-1.3-10.43,7.82-22.17-7.82h-7.82l-7.82-13,3.91-3.91,23.47-13-10.69-8.55-2.35-1.88v-9.13l-14.34-9.13,1.3-6.52-5.21-5.21,5.21-5.22,5.22,5.22,2.6-6.52L1517,1053.52l5.22-3.91,2.61-7.82-6.52-11.74,1.3-9.13,15.65,1.31,14.34-9.13V997.45l-12.05-19.28,13.35,1,3.92-6.52s10.43,2.61,11.73,2.61h14.34s1.31-3.91,2.61-3.91h7.82v10.43s-1.3,15.64,0,17,24.78,45.63,24.78,45.63l1.3,15.65s9.13,1.31,10.43,1.31,9.13,6.52,9.13,6.52v7.82l-2.61,10.43s0,.81,0,2.09c0,.52,0,1.12,0,1.77,0,1.36,0,3,.12,4.58,0,.56,0,1.12.06,1.68,0,.21,0,.43,0,.65s0,.36,0,.53c0,.34,0,.68,0,1,.12,1.69.26,3.22.45,4.31,0,.17.06.33.09.47a2.69,2.69,0,0,0,.43,1.16C1637,1105.68,1650,1120,1650,1120l19,10.13Z"
    transform="translate(-491.96 -318.56)" />
  <path class="cls-4" id="PLK" province="พิษณุโลก"
    d="M1324.07,1071.78l-2.51,7.51-.1.31-5.22,6.52,1.31,10.43-5.22,5.22-1.3,36.51-3.92,3.91v13l-11.73,6.52v6.52l-15.65,7.82v7.82l9.13,16.95-15.65,5.22-6.52,10.43v10.43l2.61,5.22-12.93,17-7.93,10.42-9.13,1.3-2.61,5.22-2.6,9.12-8.75,6.25-.38.27-7.82-9.12-1.31-7.83L1205.41,1253l2.61-24.78-3.91-5.21-5.22,2.61-6.52-1.31-3.91,9.13s-13,7.82-14.34,7.82-3.91-9.12-3.91-9.12l-6.52-2.61-9.13,6.52-33.9,3.91-1.31-2.61,10.43-13v-7.82l-3.91-5.22-3.91,6.52-5.21,5.22-6.52-7.82-6.52-1.31s-10.43,10.43-10.43,11.74c0,.84-7.83.58-13.24.3-2.84-.15-5-.3-5-.3l-14.34-6.52-3.16-8.15-7.17-18.54,2.5-15,5.27-2.63,10.38-5.19v-9.13l11.74-2.61,1.3-5.21s10.43,0,13,1.3,9.13-5.21,9.13-5.21v-15.65s-19.56-10.43-19.56-11.74v-6.51l-7.83-6.52-2.6-5.22-5.22-6.52v-7.82l6.52-3.26v.65h13l24.77-2.61,18.26-5.21,9.13-11.74,5.21-24.77,7.82-2.61h5.22l11.74-9.13h9.12l7.83-1.3,6.52,3.91,19.55-3.91,5.22-15.65,32.6-18.25,3.91-10.43L1269.3,974v-7.82l7.82-2.61,3.92,2.61h11.73l5-10,4.37.87v9l-8.88,28.61-5.72,2.85-9.13-5.21-7.82,6.52,2.6,9.13-9.12,9.12,2.6,6.52,9.13-2.61,5.22,2.61v24.78h17s2.61,6.52,6.52,9.12,14.34,3.92,14.34,3.92Z"
    transform="translate(-491.96 -318.56)" />
  <path class="cls-5" id="KKN" province="ขอนแก่น"
    d="M1780.43,1177.39l-6.52,7.83.52,9.93.78,14.84.3.1-1.6,6.42-7.82,14.34s-7.83,10.43-9.13,10.43-7.82,1.31-7.82,1.31l-2.61,11.73-6.52,5.22-6.52-6.52-5.22-1.31-5.21,7.83,2.61,9.13-5.22,14.34-13,11.73v26.08l5.22,7.82-3.92,13,14.35,19.56-5.22,13,7.83,11.74v20.86l-.53.08-8.6,1.22-3.29,25.18-.62,4.81s-13,5.22-14.35,3.91c-.82-.82-4.69-3.67-7.48-5.71l-3-2.11h-9.12l-2.61-9.13-7.83-5.21h-10.43l-5.21,3.91-14.35-1.3-6.51-3.92-6.52,5.22-15.65,3.91-2.61-6.52-5.21-2.61-6.92-18.12-3.52-9.26L1601.8,1373l2.62-10.46,1.29-5.19-6.52-6.52H1594l-9.13-5.21-1.3-6.52s13-19.56,14.34-20.87,15.65-18.25,15.65-18.25l7.82-32.6-13-13h-7.82l-6.52-2.61-13,2.61-17-13-26.08,2.61-13-7.82-1.31-7.83-7.82-5.21-6.52-13-9.13,1.3-14.34-5.21-18.26,3.91-1.3-6.52.74-1.12,5.88-8.82,1.2-1.79.8-10.41.51,0c.84,0,4.73-1.93,9.59-4.55.26-.13.54-.28.81-.44a.44.44,0,0,0,.18-.09l1-.51.34-.18,2.23-1.23.35-.19q.59-.31,1.17-.66l1.53-.84.28-.17,1.76-1c.17-.09.34-.18.51-.29l.71-.4,2-1.14c.62-.33,1.2-.67,1.79-1,5.46-3.11,9.69-5.57,9.69-5.57h10.43l16.95-10.43h7.82l22.17,7.82,10.43-7.82,11.74,1.3,5.21,6.52,2.61,10.43,11.73-1.3,7.83,3.91,13-2.61s20.86,9.13,22.16,9.13,19.56-41.72,19.56-41.72l-1.88-8.13.58.3,1.3-9.13,5.22-11.73,10.43,9.13,10.43,6.52,5.22,7.82-1.31,6.52,1.31,15.65,6.51,2.6,5.22-2.6,6.52,7.82,9.13,2.61,33.9-17,.18-.63,5,4.54-2.6,9.13-1.31,7.82,9.13-3.91,2.61-6.52,3.91,2.61Z"
    transform="translate(-491.96 -318.56)" />
  <path class="cls-5" id="ACR" province="อำนาจเจริญ"
    d="M2184.64,1349.51l5.21,13-15.64,26.07v17l-10.43,5.22-.76,4.55h0l-3.16,18.91,7.1,4.73.73,4.4v5.21l-11.74,7.83-18.25-7.83-6.52-9.12-23.47-5.22-15.65,13-2.61,14.34-8.32-3.43-13.84-5.7-11.74-36.5,6.52-33.91,16.95-18.25,1.31-20.86,26.07-15.65,32.6,9.13,3.91-3.91-2.64-16.81c1.59.18,2.64.18,2.64-.14a.48.48,0,0,1,0-.15,8.52,8.52,0,0,1,1.83-1.75l.38-.28c2.19-1.7,5.56-4,8.18-5.73,2.23-1.46,3.92-2.53,3.92-2.53l7.82-6.52h6.52l5.81-4.85,9.91,8.26s2,12,0,15c-1.5,2.26,2.68,11.37,4.83,15.69.22.46.42.85.58,1.19a3.48,3.48,0,0,1,.17.33l.27.49.15.3,1,.25Z"
    transform="translate(-491.96 -318.56)" />
  <path class="cls-5" id="UBN" province="อุบลราชธานี"
    d="M2319.34,1461.09l-7,8s3,13,2,16-9,12-9,12l-13,1-7,8,8,8,18-2,1,13-16,7s-11,13-10,15,5,6,5,6l-6,5,10,8,1,5h9l-1,10,15,11-9,8-6-3-1,7,7,9-6,3v9l-11,3s1,39,3,41a29,29,0,0,0,6,4l-1,16-16,14-8,16-7-3-3,9h-14l-6,8-9-2-5,8-13-3-9,29h-19l-8.8-15.1-5.19-8.9,4-9-6-7-10,3-16-11-3.59.2-1.21-6.65,3.91-14.35-7.82-10.43,7.82-20.86v-13c0-1.3-10.43-17-10.43-17l3.91-18.25-13-13-15.64-5.22L2109,1579s3.91-6.52,3.91-7.82-3.91-10.43-3.91-10.43l10.43-7.83-2.61-13-.46-.33-12.57-8.8h-17l-19.56-2.61-15.65-7.82.12-.8,1.18-8.33,3.92-3.91-2.61-7.82-7.83-7.83-1.3-11.73,3.91-14.35,13-2.6,19.06-4.74,8.32,3.43,2.61-14.34,15.65-13,23.47,5.22,6.52,9.12,18.25,7.83,11.74-7.83v-9.12l-.73-.49-7.1-4.73,3.16-18.91h0l.76-4.55,10.43-5.22v-17l15.64-26.07-5.21-13,9.7-14.19,82,19.75s3,5,0,6-14,0-14,0l-5,16,10,25,8,4,4,10h6l11-4,19,9,7,15Z"
    transform="translate(-491.96 -318.56)" />
  <path class="cls-5" id="SSK" province="ศรีสะเกษ"
    d="M2149.43,1665.05l-7.82,20.86,7.82,10.43-3.91,14.35,1.21,6.65-14.42.8s-9,6-9,5-8-6-8-6-5,6-6,6-13-3-13-3l-7,15s-7,1-8,0-10-9-10-9l-7,9-9-5h-19l-14-9-9,9-7.81-2.84-3.19-1.16-6,8-4-6h-7l-6,9h-6.59l-1.9-9.5,2.61-22.17-5.22-6.52v-10.43l5.22-6.52v-22.17l-13-9.12v-15.65l-19.56-7.82v-7.83l14.34-22.16,9.13-26.08-5.22-10.43-1.3-18.26-2.61-7.82,11.74-23.47,15.64-7.82s-6.52-9.13-9.12-9.13h-7.83l-3.91,2.61-2.61-5.22.39-1.16,2.22-6.66,10.11-12.28,8.15-9.89,7.82-5.21,1,1.91,1.65,3.3v7.83l11.35,10.09,12.12,10.77,1.3,10.43,22.17,9.13h7.82l2.61,9.12,4,.51-.12.8,15.65,7.82,19.56,2.61h17l12.57,8.8.46.33,2.61,13-10.43,7.83s3.91,9.13,3.91,10.43S2109,1579,2109,1579l5.22,19.56,15.64,5.22,13,13-3.91,18.25s10.43,15.65,10.43,17Z"
    transform="translate(-491.96 -318.56)" />
  <path class="cls-5" id="YST" province="ยโสธร"
    d="M2142.91,1332.56l-3.91,3.91-32.6-9.13L2080.33,1343l-1.31,20.86-16.95,18.25-6.52,33.91,11.74,36.5,13.84,5.7-19.06,4.74-13,2.6-3.91,14.35,1.3,11.73,7.83,7.83,2.61,7.82-3.92,3.91-1.18,8.33-4-.51-2.61-9.12h-7.82l-22.17-9.13-1.3-10.43-12.12-10.77-11.35-10.09v-7.83l-1.65-3.3,13.38-12.34v-13s-10.43-9.13-11.73-10.43,2.6-15.65,2.6-15.65l-9.12-9.13c-1.31-1.3-16.95,9.13-16.95,9.13l-2.61-1.31,5.21-14.34-3.91-9.13,2.61-10.43-2.61-5.21,1.31-5.22h16.95l3.91-11.73-3.91-6.52,2.61-11.74,9.12-2.61,20.86-11.73,1.31-11.74,19.56-11.73,1.65-10.74,1,.31,7.83-5.22h7.82l15.65,2.61,3.38,4.51.53.71h7.82l2.61,9.12,9.13,9.13,9.13,3.91,5.21-6.52,5.22,6.52L2126,1313s9.52,2.19,14.29,2.75h0Z"
    transform="translate(-491.96 -318.56)" />
  <path class="cls-5" id="RET" province="ร้อยเอ็ด"
    d="M2039,1282.7l-1.65,10.74-19.56,11.73-1.31,11.74-20.86,11.73-9.12,2.61-2.61,11.74,3.91,6.52-3.91,11.73h-16.95l-1.31,5.22,2.61,5.21-2.61,10.43,3.91,9.13-5.21,14.34,2.61,1.31s15.64-10.43,16.95-9.13l9.12,9.13s-3.91,14.34-2.6,15.65,11.73,10.43,11.73,10.43v13l-13.38,12.34-1-1.91-7.82,5.21-8.15,9.89-10.11,12.28-2.22,6.66-8.21,2.47-11.74-7.83-5.21-5.21h-9.13l-10.43,6.52h-27.38l-13-6.52-7.82,2.6-9.13,6.52-15.65-6.52-9.48,2.1v0l-2.25.49,2.61-18.25s-14.35,1.3-14.35,0c0-.91-8.33-8.24-13.31-12.55l-3.64-3.1,6.52-17v-6.52l7.82-2.61,3.92-5.21,9.12,3.91,6.52-3.91-2.6-10.43,9.12-32.6,6.52-2.61-5.21-15.65,2.6-11.73-3.91-9.13,1.31-10.43,9.12-14.34,7.83-5.22,6.52,5.22,9.12-2.61,6.52,5.22,2.74-3.84,3.78-5.29h15.65l2.61-17-7.83-13-3.91-7.82,27.38-19.56,13,1.3,10.43,9.13,18.26-3.91,5.21,1.3,2.61,10.43,26.08-10.43,17,2.61,1.1-1.92.2.61,6.52-3.91,5.22-6.52,5.22,14.35-1.31,18.25Z"
    transform="translate(-491.96 -318.56)" />
  <path class="cls-5" id="MKM" province="มหาสารคาม"
    d="M1843,1358.63l5.21,15.65-6.52,2.61-9.12,32.6,2.6,10.43-6.52,3.91-9.12-3.91-3.92,5.21-7.82,2.61v6.52l-6.52,17,3.64,3.1c5,4.31,13.31,11.64,13.31,12.55,0,1.3,14.35,0,14.35,0l-2.61,18.25,2.25-.49-4.86,7-.26,0-15.39,1.28-20.86-10.44-25.33-5.5-4.66-1-1.3-13-9.13-6.52-1.3-7.83-13-14.34,5.21-13L1725.14,1407l.53-.08V1386l-7.83-11.74,5.22-13-14.35-19.56,3.92-13-5.22-7.82v-26.08l13-11.73,5.22-14.34-2.61-9.13,5.21-7.83,5.22,1.31,6.52,6.52,6.52-5.22,2.61-11.73s6.52-1.31,7.82-1.31,9.13-10.43,9.13-10.43l7.82-14.34,1.6-6.42,7.53,2.51-3.91,13,1.3,10.43-1.3,13,3.91,7.82-3.91,9.13v7.82h6.51l6.52-3.91,13-3.91,2.61,7.82,11.74,2.61v10.43l11.73,5.22L1830,1300l13,10.43,9.12,2.61-9.12,14.34-1.31,10.43,3.91,9.13Z"
    transform="translate(-491.96 -318.56)" />
  <path class="cls-5" id="SRN" province="สุรินทร์"
    d="M1960.37,1650.71l13,9.12V1682l-5.22,6.52V1699l5.22,6.52-2.61,22.17,1.9,9.5h-8.42l-4-5-2,2h-9v5l-11-1-7-7-4,2h-11l-11-6-4-2-1,4-4-1v-12l-9-1-3,2-1,6h-8l-4-5h0l-7-1s-5,7-6,7h-7l-7,7-8-5-5,8h-33l-8,7-.69-.3v-19.73l5.21-7.83-5.21-13v-27.39l11.73-18.25V1639l7.83-10.43,19.55-14.34,7.83-23.47-3.91-11.74,1.3-41.72,18.25-18.26-10.43-11.73-3.91,7.82-7.82,1.31-9.13-9.13-14.34,10.43-14.35-5.22-18.25-10.43-2.61-9.12-7.82-2.61,2-13.33,25.33,5.5,20.86,10.44,15.39-1.28.26,0,4.86-7v0l9.48-2.1,15.65,6.52,9.13-6.52,7.82-2.6,13,6.52h27.38l10.43-6.52h9.13l5.21,5.21,11.74,7.83,8.21-2.47-.39,1.16,2.61,5.22,3.91-2.61h7.83c2.6,0,9.12,9.13,9.12,9.13l-15.64,7.82-11.74,23.47,2.61,7.82,1.3,18.26,5.22,10.43-9.13,26.08-14.34,22.16v7.83l19.56,7.82Z"
    transform="translate(-491.96 -318.56)" />
  <path class="cls-5" id="BRM" province="บุรีรัมย์"
    d="M1832.59,1579l3.91,11.74-7.83,23.47-19.55,14.34-7.83,10.43v15.65l-11.73,18.25v27.39l5.21,13-5.21,7.83v19.73l-6.31-2.7-6,1-1,4-8-1-1,5-11,2-6,7v4l-9.71,6.8-.29.21-11-1-2.77,8.3-16.45,2.74h-15.65l-7.82,6.51h-13l-7.82-6.51-11.74-1.31-13,7.82h-18.25l-5.22-5.21,3.91-7.82,18.26-1.31,30-20.86-5.22-7.82h-11.73l-6.14-8.78-3-4.26,1.3-11.74,9.13-6.52-1.3-9.12-23.47-2.61,1.3-13-6.52-7.82v-23.47l2.61-10.44-9.13-11.73,5.22-6.52,6.52,5.21h9.12l5.22-13-3.91-10.44,10.43-9.12,6.52,3.91,19.56,1.3,2.61-13,11.73-5.21,3.91-9.13-3.91-9.13,14.34-15.64,14.35-5.22,13-2.61,2.6-3.91V1506l-5.21-9.12,1.3-5.22L1740,1489v-9.12l-6.52-3.92-7.82-1.3-6.52-6.52-18.26-1.3-7.82-7.83-2.27-22.66c2.79,2,6.66,4.89,7.48,5.71,1.31,1.31,14.35-3.91,14.35-3.91l.62-4.81,3.29-25.18,8.6-1.22,16.17,14.26-5.21,13,13,14.34,1.3,7.83,9.13,6.52,1.3,13,4.66,1-2,13.33,7.82,2.61,2.61,9.12,18.25,10.43,14.35,5.22,14.34-10.43,9.13,9.13,7.82-1.31,3.91-7.82,10.43,11.73-18.25,18.26Z"
    transform="translate(-491.96 -318.56)" />
  <path class="cls-4" id="PNB" province="เพชรบูรณ์"
    d="M1474.81,1181.33l-.8,10.41-1.2,1.79-5.88,8.82-7.26,2.42-7.82-5.21-13,2.61-5.22-5.22-14.34,5.22-5.22,13-3.91,6.51,2.61,9.13-7.82,3.91,1.3,11.74-22.17,30-6.52,19.56,1.31,20.86-6.52,35.2,14.34,13-2.61,6.52v9.13l-7.82,6.52-.61,1.84-3.3,9.9,3.91,13-.43,3-.87,6.09,3.91,7.82-11.74,26.08-5.21,19.56v28.69l-7.83,5.21-9.12-1.3-7.83-5.22L1311,1513.8h-14.35l-2.6-11.74-9.13-7.82v-20.86l-15.65-6.52-8-10.66-3.74-5,6.52-23.47-2.78-12-5-21.87,3.91-9.13-11.73-2.61V1373l.78-.79,5.74-5.73-3.91-9.13-20.87-7.82-7.82-6.52v-23.47l15.65-18.26-15.65-15.64,3-4.19,8.75-6.25,2.6-9.12,2.61-5.22,9.13-1.3,7.93-10.42,12.93-17-2.61-5.22v-10.43l6.52-10.43,15.65-5.22-9.13-16.95v-7.82l15.65-7.82v-6.52l11.73-6.52v-13l7.83,9.12,9.13-3.91,2.6-26.08,19.56-11.73,6.52,2.61,2.61-9.13,5.21,1.3,17-15.64,11.74-2.61,10.43,6.52,3.91,7.82v7.83l11.74,6.52v9.12l9.13,7.83,10.43-3.92,1.3-9.12,6.52-1.31,3.91,9.13,1.31,14.34,3.91,1.31v3.91l-1.31,9.13a56,56,0,0,1,1.31,6.52c0,1.3,5.21,6.52,5.21,6.52l-2.61,9.12s5.22,6.52,6.52,6.52S1471.58,1181.59,1474.81,1181.33Z"
    transform="translate(-491.96 -318.56)" />
  <path class="cls-5" id="CPM" province="ชัยภูมิ"
    d="M1597.88,1318.21c-1.3,1.31-14.34,20.87-14.34,20.87l1.3,6.52,9.13,5.21h5.22l6.52,6.52-1.29,5.19L1601.8,1373l-10.44,18.25,3.52,9.26-11.34,3.78L1577,1414.7h-20.86V1429l-18.26,17-10.43,31.29-22.16,6.52-3.91,9.13-13,2.6h-13l-9.13,5.22-15.65-3.91-24.77,3.91-10.94-6.56h0l-2.1-1.25h-5.22l-14.34,7.82-4.68-1.33-4.45-1.28v-26.08l-5.21-15.64,9.13-26.08-2.61-14.34-9.56-.88.43-3-3.91-13,3.3-9.9.61-1.84,7.82-6.52v-9.13l2.61-6.52-14.34-13,6.52-35.2-1.31-20.86,6.52-19.56,22.17-30-1.3-11.74,7.82-3.91-2.61-9.13,3.91-6.51,5.22-13,14.34-5.22,5.22,5.22,13-2.61,7.82,5.21,7.26-2.42-.74,1.12,1.3,6.52,18.26-3.91,14.34,5.21,9.13-1.3,6.52,13,7.82,5.21,1.31,7.83,13,7.82,26.08-2.61,17,13,13-2.61,6.52,2.61h7.82l13,13-7.82,32.6S1599.19,1316.91,1597.88,1318.21Z"
    transform="translate(-491.96 -318.56)" />
  <path class="cls-5" id="NMA" province="นครราชสีมา"
    d="M1730.88,1491.63l-1.3,5.22,5.21,9.12v32.6l-2.6,3.91-13,2.61-14.35,5.22L1690.46,1566l3.91,9.13-3.91,9.13-11.73,5.21-2.61,13-19.56-1.3-6.52-3.91-10.43,9.12,3.91,10.44-5.22,13h-9.12l-6.52-5.21-5.22,6.52,9.13,11.73-2.61,10.44v23.47l6.52,7.82-1.3,13,23.47,2.61,1.3,9.12-9.13,6.52-1.3,11.74,3,4.26,6.14,8.78h11.73l5.22,7.82-30,20.86-18.26,1.31-3.91,7.82.81.81-32.1,8.32-20.86-9.13-.24.13-15.41,9-6.39-4.19-35.34-23.2-3.91-19.55h-14.34l-10.43-9.13h-11.74l-9.12,9.13-24.78-26.08-16.95,1.3-9.13-5.21-7.66,3.28-1.46.63-2.61,11.73-10.43-7.82-2-1.64-20.17-16.61-10.43,5.21L1341,1693.74l1.3-7.83,5.22-6.52-1.31-17-5.21-13,2.6-6.52,19.56,5.22,13-14.34,23.47-14.35-9.13-43-2-25.44-.57-7.16-1.31-28.69,1.84-15.67,4.68,1.33,14.34-7.82h5.22l2.1,1.25h0l10.94,6.56,24.77-3.91,15.65,3.91,9.13-5.22h13l13-2.6,3.91-9.13,22.16-6.52L1537.9,1446l18.26-17V1414.7H1577l6.52-10.43,11.34-3.78,6.92,18.12,5.21,2.61,2.61,6.52,15.65-3.91,6.52-5.22,6.51,3.92,14.35,1.3,5.21-3.91h10.43l7.83,5.21,2.61,9.13h9.12l3,2.11,2.27,22.66,7.82,7.83,18.26,1.3,6.52,6.52,7.82,1.3,6.52,3.92V1489Z"
    transform="translate(-491.96 -318.56)" />
  <path class="cls-4" id="KPT" province="กำแพงเพชร"
    d="M1085.83,1307.78l2.23,5.22-2.15,3.69-16.1,27.6h-9.13l-14.34,7.82-11.74,26.08h-18.25l-11.74,6.52-35.2-7.82L959,1382.1H921.16l-14.34-10.43-18.26,10.43-9.49-2.37.37-5.45s-3.92-7.82-3.92-9.13,9.13-22.16,9.13-22.16l-7.82-15.65-7.83-2.61,7.83-15.64-7.83-13,2.61-22.17s-9.12-3.91-9.12-5.21,1.3-9.13,1.3-9.13l-6.52-7.83v-5.21l3.91-2.61,6.52,5.22h16.95l18.26-15.65h10.43v-22.17l13-24.77-2.61-9.13,5.21-7.82h14.35l1.3-13h15.65l5.84-9.34.68.21,7.82,20.87,2.61-2.61,2.61-6.52,5.21,1.3v9.13l10.43,13,19.56,9.13,7.82-5.22,6.52,13s14.35-9.13,15.65-9.13,5.22,2.61,5.22,2.61l.1-.61,7.17,18.54,3.16,8.15,14.34,6.52s2.18.15,5,.3l8,14-14.34,23.47,9.12,18.25-2.6,13Z"
    transform="translate(-491.96 -318.56)" />
  <path class="cls-4" id="PCT" province="พิจิตร"
    d="M1255,1366.46l-5.74,5.73-7.3-13.56-10.43,1.31L1225,1356h-6.52l-17,15.64h-43l-3.91-7.82-5.22-2.61-5.21,7.83-17,6.51-9.13-3.91-14.34-30-7.83-19.55-10-5.44,2.15-3.69-2.23-5.22-5.59-13,2.6-13-9.12-18.25,14.34-23.47-8-14c5.41.28,13.24.54,13.24-.3,0-1.31,10.43-11.74,10.43-11.74l6.52,1.31,6.52,7.82,5.21-5.22,3.91-6.52,3.91,5.22v7.82l-10.43,13,1.31,2.61,33.9-3.91,9.13-6.52,6.52,2.61s2.6,9.12,3.91,9.12,14.34-7.82,14.34-7.82l3.91-9.13,6.52,1.31,5.22-2.61,3.91,5.21-2.61,24.78,10.43,11.73,1.31,7.83,7.82,9.12.38-.27-3,4.19,15.65,15.64-15.65,18.26V1343l7.82,6.52,20.87,7.82Z"
    transform="translate(-491.96 -318.56)" />
  <path class="cls-4" id="NSN" province="นครสวรรค์"
    d="M1257.57,1451.21l3.74,5-9,4.14-5.21,6.52,2.6,11.73-7.82,5.22h-13l-10.43,13,1.3,15.64-9.12,7.83,1.3,10.43-15.65,11.73s-.84,2.81-1.87,6c-1.19,3.62-2.64,7.69-3.34,8.4-1.31,1.3-10.43,6.52-10.43,6.52l-5.22,6-3.91,4.47-13-7.83-1.23-6.14-.07-.38-17-17,.1-.65,1.2-7.17-7.82-10.43,2.6-18.26-6.52-2.6L1122,1506l-15.65-13s-.66-.13-1.69-.36c-3.57-.75-11.63-2.54-12.65-3.56-1.3-1.3,0-9.12,0-9.12l-10.43-5.22-14.34-2.61-.69-7.65-.62-6.69v-19.56l-6.52-7.82-9.12,5.21-2.61,9.13-22.17-14.34-15.64,3.91-33.91,23.47H960.28l-19.56-15.65-3.91-11.73L912,1421.22l-6.52-11.73L889.87,1406v-1.73l-11.74-10.43.08-1.1.86-13,9.49,2.37,18.26-10.43,14.34,10.43H959l10.44-5.21,35.2,7.82,11.74-6.52h18.25l11.74-26.08,14.34-7.82h9.13l16.1-27.6,10,5.44,7.83,19.55,14.34,30,9.13,3.91,17-6.51,5.21-7.83,5.22,2.61,3.91,7.82h43l17-15.64H1225l6.52,3.91,10.43-1.31,7.3,13.56-.78.79v9.12l11.73,2.61-3.91,9.13,5,21.87,2.78,12Z"
    transform="translate(-491.96 -318.56)" />
  <path class="cls-4" id="LRI" province="ลพบุรี"
    d="M1390.56,1576.39h-9.12l-1.31,9.12-5.21,6.52-11.74,2.61-2.61,11.73-19.55-1.3-7.83,5.22-10.43-2.61-5.21,5.21,2.6,9.13-5.21,17-10.43-5.21-17,10.43-9.13-5.22h-7.82l-6.52-7.82h-11.74c-1.3,0-6.52-2.61-6.52-2.61l-14.34,7.82-3.91,13-6.16,7.28-8.19,9.67-2.94-.39-15.21-2-1.4-.18-9.13-9.13v-27.38l-7.88-13.8-2.55-4.46,5.21-11.73-2.61-7.83,5.22-11.73-6.52-8.38,5.22-6s9.12-5.22,10.43-6.52c.7-.71,2.15-4.78,3.34-8.4,1-3.14,1.87-6,1.87-6l15.65-11.73-1.3-10.43,9.12-7.83-1.3-15.64,10.43-13h13l7.82-5.22-2.6-11.73,5.21-6.52,9-4.14,8,10.66,15.65,6.52v20.86l9.13,7.82,2.6,11.74H1311l26.07-11.74,7.83,5.22,9.12,1.3,7.83-5.21v-28.69l5.21-19.56,11.74-26.08-3.91-7.82.87-6.09,9.56.88,2.61,14.34-9.13,26.08,5.21,15.64v26.08l4.45,1.28-1.84,15.67,1.31,28.69.57,7.16Z"
    transform="translate(-491.96 -318.56)" />
  <path class="cls-6" id="TRT" province="ตราด"
    d="M1681.23,2186.23l-4,43,14,22,1.84,13.6c0,.19,1.22,10.28,1.3,10.43l26.08,49.55-27.38-36.51-3.91-23.47-27.93-28.6,6-4-13-12-8,6v24l5,9-14-8,1-7-11-13h-17l-5-7h-20l-3.29-15.63-.71-3.38,11-2,9-11-4.7-6.59.07-.33,3.91-5.22-9.13-6.52v-11.73l-2.6-10.44,1.3-10.43,11.74-6.52,5.21-3.91s-1.3-15.65-2.61-16.95,16.95-14.34,16.95-14.34h9.51l-.64,1,1,13,8,7s10-2,10-1c0,.14.3.5.82,1,.1.1.22.19.34.31,1,.86,2.45,2.06,4.08,3.34q.32.26.63.48l.62.5c4.06,3.13,8.52,6.4,8.52,6.4l5,13,12,7s-2,7-1,7,15,13,15,13,0,5-1,6S1681.23,2186.23,1681.23,2186.23Z"
    transform="translate(-491.96 -318.56)" />
  <path class="cls-6" id="CTI" province="จันทบุรี"
    d="M1638.21,2088.2l-7.35,11.05h-9.51s-18.25,13-16.95,14.34,2.61,16.95,2.61,16.95l-5.21,3.91-11.74,6.52-1.3,10.43,2.6,10.44v11.73l9.13,6.52-3.91,5.22-.07.33-.3-.41s-5,9-6,9-8-5-8-5l3-6-8-11-4,4v5l9,16h-7l-41-39-10-9-15-1-10-13-9.7-10.59-1.3-1.42L1472.47,2113l2.85-8.52,6.52-23.47-7.83-22.16h-9.12l-5.22-7.83,5.22-13-11.74-3.91-2.61-22.16,2.3-4.14.77-1.39,3.45-6.21,2.81-.29,10.23-1,9.13-9.13,9.13,3.91,9.12-3.91v-10.43l19.56-10.43,5.31,9.1,3.82,6.55,14.34-2.61,7.83-14.35,11.73,2.61,5.22,13,11.73,1.31,9.13-9.13,11.13,1,3.93,9.8-1,13,10,16,3.19,2,7.8,5s6,14,7,15,9,4,9,4l-10,6,6,17-2,12Z"
    transform="translate(-491.96 -318.56)" />
  <path class="cls-6" id="SKW" province="สระแก้ว"
    d="M1722.24,1811.15l-10,3s-20,19-20,20-1,13-1,13l-10,13v8l-28,9-10,15,13,11-8,3-5,5-10,3-22-1-10-5-8,11,7,6-3,51,.07.2-11.13-1-9.13,9.13-11.73-1.31-5.22-13-11.73-2.61-7.83,14.35-14.34,2.61-3.82-6.55-5.31-9.1v-15.65l-6.52-5.21-3.91-11.74h-9.13l-3.16-10.53-.75-2.51,5.92-9.87,9.73-16.21,1.3-32.59-7.82-15.65-2.61-17,10.43-5.22-6.52-18.25h31.3v-15.65l8-9.4,6.39,4.19,15.41-9,.24-.13,20.86,9.13,32.1-8.32,4.41,4.4h18.25l13-7.82,11.74,1.31,7.82,6.51h13l7.82-6.51H1710l16.45-2.74-.23.7,3,8s-8,8-9,10S1722.24,1811.15,1722.24,1811.15Z"
    transform="translate(-491.96 -318.56)" />
  <path class="cls-6" id="CCO" province="ฉะเชิงเทรา"
    d="M1517,1953.21v15.65l-19.56,10.43v10.43l-9.12,3.91-9.13-3.91-9.13,9.13-10.23,1-11.93-19.27-24.78-13-6.52-19.55-37.81-11.74-26.08-23.47-22.17-3.91-18.25,6.52,2.61,10.43-10.43,5.22-8.58,12.16.22-5-2-6-4.76,4-1.23,1-10-1-8.16-6.33,1.92-10.54,15.65-18.25-13.68-11.86-5.88-5.1.32-.48,17.93-26.9-9.13-9.12,3.17-19h0l.73-4.42,13.34-3.64.36-.11.64-.17,32.34,1.24,1.56.07,6.52,7.82-2.61,6.52,1.31,10.43,11.73-6.52,7.82,5.22,24.78-1.31,5.21,5.22,20.87,6.52s9.12,9.13,10.43,9.13h9.13L1434.9,1875s13-2.61,14.34-2.61,15.65-5.22,15.65-5.22l10.43,7.83,2.61,7.82h7.82v6.52l-2.61,3.91,2.61,6.52,7.82,2.61,5.92,11-5.92,9.87.75,2.51,3.16,10.53h9.13l3.91,11.74Z"
    transform="translate(-491.96 -318.56)" />
  <path class="cls-6" id="PRI" province="ปราจีนบุรี"
    d="M1543.25,1783.43l-8,9.4v15.65H1504l6.52,18.25-10.43,5.22,2.61,17,7.82,15.65-1.3,32.59-9.73,16.21-5.92-11-7.82-2.61-2.61-6.52,2.61-3.91v-6.52h-7.82l-2.61-7.82-10.43-7.83s-14.35,5.22-15.65,5.22-14.34,2.61-14.34,2.61l-10.43-10.43h-9.13c-1.31,0-10.43-9.13-10.43-9.13L1384,1848.9l-5.21-5.22-24.78,1.31-7.82-5.22-11.73,6.52-1.31-10.43,2.61-6.52-6.52-7.82-1.56-.07,2.86-6.45,10.44-2.61,5.21-9.13,24.78-2.6-6.52-17,9.12-13,15.65-2.61v-5.22l-5.22-2.61,1.31-6.51,14.34,1.3,10.43-2.61v-15.65l-14.34-10.43,2.61-11.73,1.46-.63,7.66-3.28,9.13,5.21,16.95-1.3,24.78,26.08,9.12-9.13h11.74l10.43,9.13H1504l3.91,19.55Z"
    transform="translate(-491.96 -318.56)" />
  <path class="cls-3" id="KRI" province="กาญจนบุรี"
    d="M1054.16,1826.73l-.42.63-17.84,26.76-14.34,1.3-14.34-6.52s-13,15.65-14.34,16.95-22.17,1.3-22.17,1.3l-9.13-6.52-15.65,9.13H930.29l-11.74,3.91-10.43-1.3-13,8.15v-5.35l-11-9,1-14h-4v-14h-6s-2-8-12-10c-1-3-5-19-5-19l-8-3v-13l-20-5v-7l-34-21-2-6-25-14v-11l-5,1-17-39-9,2v-12s-4-9-26-25c-9-8-20-32-20-32l2-7-5-5v-5l3-4-3-9-5-2v-5l5-10-12-15,7-18-3-11h14s6-7,9-10v-7s15,1,22,11a44,44,0,0,1,5-3.09l-7-13.92,5-8h7l13-4,12,10,6-6v-31l-6.32-35.55,6.57,1.32,5.22,6.52h9.12l15.65,22.16-1.3,6.52s7.19,3.6,9.63,5.57c.5.41.8.73.8.95V1489l26.08,27.39,2.6,10.43,13,3.91,11.74,22.16,1.3,20.87,13,5.21,13-2.6,6.52,6.51,6.39-1.06,1.43-.24,11.74,7.82,7.65-1.27.17,0,6.52,5.22,1.3,18.25L922.46,1622l17,15.65h11.73l6.52,11.73,14.34,5.22,13-6.52,2.61-13,19.56-9.13,9.13,22.17,15.64,7.82,9.13,14.35-6.52,5.21-1.3,14.34,7.82,9.13s0,63.89-1.3,63.89-13,11.74-13,11.74l5.21,18.25,5.47,4.1,6.57,4.92,3.61,2.72-3.91,7.82,3.5,4.81Z"
    transform="translate(-491.96 -318.56)" />
  <path class="cls-4" id="UTI" province="อุทัยธานี"
    d="M1098.49,1500.76l3.91,10.43-11.73,11.74-6.52-3.92-20.86-1.3-9.13,2.61-6.52-6.52-14.34-2.61-11.74,9.13L1019,1536l14.35,17v15.65l-13,15.65v10.43l-15.65-3.91-7.82,9.13-27.38-10.44H955.06l-3.91-15.64h-13l-3.91-5.22-7.82,5.22L921,1588.15l-7.65,1.27-11.74-7.82-1.43.24-6.39,1.06-6.52-6.51-13,2.6-13-5.21-1.3-20.87,2.61-24.77L869,1519l-1.3-11.73,6.52-10.43-2.61-16.95,5.22-7.83-5.22-9.12-1.3-7.83L882,1448.6v-18.25l7.83-7.82V1406l15.64,3.49,6.52,11.73,24.78,9.13,3.91,11.73,19.56,15.65h15.64l33.91-23.47,15.64-3.91,22.17,14.34,2.61-9.13,9.12-5.21,6.52,7.82v19.56l.62,6.69.69,7.65,14.34,2.61,10.43,5.22s-1.3,7.82,0,9.12c1,1,9.08,2.81,12.65,3.56Z"
    transform="translate(-491.96 -318.56)" />
  <path class="cls-4" id="CNT" province="ชัยนาท"
    d="M1157.24,1559.81,1148,1566l-2.61,7.83h-9.13l-5.21,5.21,6.52,3.91v14.35h-14.35l-5.37,3.75-7.66,5.37-.59-.41-8.54-6.1-13-3.92-3.91,10.43L1062,1609l-27.38-6.52-14.34-8.43v-9.82l13-15.65v-15.65L1019,1536l2.61-15.64,11.74-9.13,14.34,2.61,6.52,6.52,9.13-2.61,20.86,1.3,6.52,3.92,11.73-11.74-3.91-10.43,6.13-8.18c1,.23,1.69.36,1.69.36l15.65,13,7.82-2.6,6.52,2.6-2.6,18.26,7.82,10.43-1.2,7.17-.1.65,17,17Z"
    transform="translate(-491.96 -318.56)" />
  <path class="cls-4" id="SPB" province="สุพรรณบุรี"
    d="M1141.52,1723.73v17l-6.52,6.52v9.12l-3.13,10.43-.78,2.61-5.27,3.3-15.59,9.74-24.78-2.61-24.77,6.52L1044,1801.85l-6.57-4.92-5.47-4.1-5.21-18.25s11.73-11.74,13-11.74,1.3-63.89,1.3-63.89l-7.82-9.13,1.3-14.34,6.52-5.21-9.13-14.35-15.64-7.82-9.13-22.17-19.56,9.13-2.61,13-13,6.52-14.34-5.22-6.52-11.73H939.42l-17-15.65,6.52-10.43-1.3-18.25-6.52-5.22-.17,0,5.39-14.37,7.82-5.22,3.91,5.22h13l3.91,15.64h14.35l27.38,10.44,7.82-9.13,15.65,3.91V1594l14.34,8.43L1062,1609l22.17-2.61,3.91-10.43,13,3.92,8.54,6.1.59.41,7.66-5.37,10.59,10.59-.83,3.33-1.78,7.1,1.31,9.13-.51,1.52-3.41,10.21,5.22,18.26-3.91,10.43v7.82l-2.61,9.13,2.7,3.47,6.43,8.27.53,5.35.77,7.68Z"
    transform="translate(-491.96 -318.56)" />
  <path class="cls-4" id="SRI" province="สระบุรี"
    d="M1399.69,1619.41l-23.47,14.35-13,14.34-19.56-5.22-2.6,6.52,5.21,13,1.31,17-5.22,6.52-1.3,7.83,11.73,11.73-2.61,10.43-5.21,1.31-1.31,6.52,2.61,7.82-7.82,5.21-6.52-5.21-19.56-10.43,1.3,15.64-13,11.74-8.88-1.11-1.56-.19v7l-13,2.17-6.51-2.6-10.44,5.21v-17l-9.12-6.52,2-9,.61-2.75-6.51-3.92,2.6-17-5.21-6.52,7.82-6.52v-5.21H1238l-6.52-2.61-3.91,5.22-14.35-1.31-9.12-9.12,6.18-10.83,2.94.39,8.19-9.67,6.16-7.28,3.91-13,14.34-7.82s5.22,2.61,6.52,2.61h11.74l6.52,7.82h7.82l9.13,5.22,17-10.43,10.43,5.21,5.21-17-2.6-9.13,5.21-5.21,10.43,2.61,7.83-5.22,19.55,1.3,2.61-11.73,11.74-2.61,5.21-6.52,1.31-9.12h9.12Z"
    transform="translate(-491.96 -318.56)" />
  <path class="cls-4" id="ATG" province="อ่างทอง"
    d="M1189.76,1667.66s-3.91,11.73-3.91,13,3.91,10.43,3.91,10.43v15.64l-5.21,7.83s-10.43,0-11.74-1.31,1.31-10.43,1.31-10.43l-7.83-3.91-6.52,1.31-9.12,3.91-11.74-2.61-7.29,4-.53-5.35-6.43-8.27-2.7-3.47,2.61-9.13v-7.82l3.91-10.43-5.22-18.26,3.41-10.21,17.46,5,7.82-2.61,18.26,14.34,14.34,4.1v1.12l9.13,9.13,1.4.18Z"
    transform="translate(-491.96 -318.56)" />
  <path class="cls-4" id="AYA" province="พระนครศรีอยุธยา"
    d="M1260.17,1742v17l-41.72,23.47-6.52,1.3-7.82,5.22-10.6-2.12-2.44-.49s-5.22,5.22-6.52,5.22-26.31-1.19-28.53-1.31h-.16l-2.61-3.91-4.31-1.43-3.51-1.18-2.61,2.61h-2.6v-11.73l-14.4-1.92,5.27-3.3.78-2.61,3.13-10.43v-9.12l6.52-6.52v-17l-9.13-10.44-.77-7.68,7.29-4,11.74,2.61,9.12-3.91,6.52-1.31,7.83,3.91s-2.61,9.13-1.31,10.43,11.74,1.31,11.74,1.31l5.21-7.83v-15.64s-3.91-9.13-3.91-10.43,3.91-13,3.91-13l5.32-3.73,15.21,2-6.18,10.83,9.12,9.12,14.35,1.31,3.91-5.22,6.52,2.61h14.34v5.21l-7.82,6.52,5.21,6.52-2.6,17,6.51,3.92-.61,2.75-2,9Z"
    transform="translate(-491.96 -318.56)" />
  <path class="cls-4" id="PTE" province="ปทุมธานี"
    d="M1290.16,1754.15v3.48l-9.12,7.82v58.68l-.73,4.42h0c-3.57.9-19,4.7-20.12,4.7-1.3,0-6.52-2.6-6.52-2.6l-5.21,5.21h-26.08l-10.43-9.13h-20.86l-10.43-6.52H1165l-6.52-5.21-5.22-9.13,2.77-15.65c2.22.12,27.28,1.31,28.53,1.31s6.52-5.22,6.52-5.22l2.44.49,10.6,2.12,7.82-5.22,6.52-1.3,41.72-23.47,10.44-5.21,6.51,2.6Z"
    transform="translate(-491.96 -318.56)" />
  <path class="cls-4" id="NBI" province="นนทบุรี"
    d="M1204.46,1826.73l-9.48,27.39-5.22,7.82s-6.52-2.61-7.82-2.61c-.44,0-4,0-8.42,0h-1.1c-3.58-.06-7.65-.13-11.22-.28l-1.88-.08-.45,0-1.08-.07-2-.13c-.29,0-.56,0-.83-.06-.56-.06-1.06-.11-1.49-.17a4,4,0,0,1-1.57-.43c-1.3-1.31-14.34-26.08-14.34-26.08l6.52-11.74-6.52-3.91,2.61-30h2.6l2.61-2.61,3.51,1.18,4.31,1.43,2.61,3.91h.16l-2.77,15.65,5.22,9.13,6.52,5.21h15.65l10.43,6.52Z"
    transform="translate(-491.96 -318.56)" />
  <path class="cls-4" id="BKK" province="กรุงเทพมหานคร"
    d="M1286.25,1856.72l-17.93,26.9-30.31-4.73-3.91,15.65-15.65,1.3-7.82-3.91-2.61-7.83h-5.22l-2.61,5.22-5.21,5.22,1.3,7.82-2.6,7.82h-6.52l-5.22-5.21-3.91,3.91,2.61,10.43-1,9.87h-.51l-2.38,1-2.63,1h-4.92l1-11.87-5.22-6.52-2.61-9.13-7.82-7.82-.31-3.47-1-10.87-1-1.55-1.57-2.36,2.87-19.13c.43.06.93.11,1.49.17.27,0,.54,0,.83.06l2,.13,1.08.07.45,0,1.88.08c3.57.15,7.64.22,11.22.28h1.1c4.47,0,8,0,8.42,0,1.3,0,7.82,2.61,7.82,2.61l5.22-7.82,9.48-27.39h7.47l10.43,9.13h26.08l5.21-5.21s5.22,2.6,6.52,2.6c1.15,0,16.55-3.8,20.12-4.7l-3.17,19Z"
    transform="translate(-491.96 -318.56)" />
  <path class="cls-4" id="NPT" province="นครปฐม"
    d="M1152.22,1880l-13.31,2.85,3.91,5.22-10.43,2.6h-6.52v-5.21l-16.28,3.26-3.28.65v5.22h-10.54l-2.49-9.13-9.13-1.31,1.3-11.73h-7.82s-1.31,3.91-3.91,3.91-9.13-3.91-9.13-3.91l6.52-11.74v-9.12l-11.74-2.61-1.3-14.34,6.52-5.22-3.91-2.61-6.94.63.42-.63-6.93-9.53-3.5-4.81,3.91-7.82-3.61-2.72,16.65-15.54,24.77-6.52,24.78,2.61,15.59-9.74,14.4,1.92v11.73l-2.61,30,6.52,3.91-6.52,11.74s13,24.77,14.34,26.08a4,4,0,0,0,1.57.43l-2.87,19.13Z"
    transform="translate(-491.96 -318.56)" />
  <path class="cls-4" id="SKM" province="สมุทรสงคราม"
    d="M1098.49,1944.08v4.72l-2.37,2.38-5,1-5,8-3.16.39-4.85.61v9l-8,4,.09.76-9.52,1.73-5.22,11.74s-6.52,1.3-6.52,0v-20.87l.15-.44,4.91-14.72,2.77-8.31-1.31-16.95,6.52-2.6,10.43,9.12,5.22-5.21,9.18-2.11,0,.8,2,2.95Z"
    transform="translate(-491.96 -318.56)" />
  <path class="cls-3" id="RBR" province="ราชบุรี"
    d="M1095.77,1894.54h-1.19l-6.52,10.43-1.25,21.36-9.18,2.11-5.22,5.21-10.43-9.12-6.52,2.6,1.31,16.95-2.77,8.31-4.91,14.72-24.92-2.16-18.26,14.34-1.3,17-15.65,1.3-11.73-2.6s-7.82,6.52-9.13,6.52H956.37l-15.65-11.74-6.52-1.3-2.61,6.52-3.91,13h-9.13l-10.43-11.74-3.08-1h0l-4-8,1-4,3-1v-4l-5-2v-5l3-6,.06-2.24.94-29.76-5-4,2-13-6-6,3-1v-4l-3-1v-23.65l13-8.15,10.43,1.3,11.74-3.91h15.64l15.65-9.13,9.13,6.52s20.86,0,22.17-1.3,14.34-16.95,14.34-16.95l14.34,6.52,14.34-1.3,17.84-26.76,6.94-.63,3.91,2.61-6.52,5.22,1.3,14.34,11.74,2.61v9.12l-6.52,11.74s6.52,3.91,9.13,3.91,3.91-3.91,3.91-3.91h7.82l-1.3,11.73,9.13,1.31Z"
    transform="translate(-491.96 -318.56)" />
  <path class="cls-3" id="PBI" province="เพชรบุรี"
    d="M1101.11,2034.2l-12,16-1,13-5.5,12.54-12.5,28.47,1.39,14.6.67,5.5-14.1,1-5.22,3.91-10.43-2.61-18.25,2.61-9.13,2.61-10.43-9.13h-6.52l-2.61,13-10.43,2.6-13,1.31-5.21-5.22-11.71,2.13v-.37l-4-7h-8l-3.34-3.6-9.67-10.39h-8l-1-10-11-1-2-23-10-5,2-14-7-4,8-6v-9l-21-19,7-4v-17l-4-2,6-6,6-1,5,4,5-3,3.08,1L918.55,2008h9.13l3.91-13,2.61-6.52,6.52,1.3,15.65,11.74H968.1c1.31,0,9.13-6.52,9.13-6.52l11.73,2.6,15.65-1.3,1.3-17,18.26-14.34,24.92,2.16-.15.44v20.87c0,1.3,6.52,0,6.52,0l5.22-11.74,9.52-1.73.91,8.24,14,19,8,3s-2,17-1,18S1101.11,2034.2,1101.11,2034.2Z"
    transform="translate(-491.96 -318.56)" />
  <path class="cls-3" id="PKN" province="ประจวบคีรีขันธ์"
    d="M1086.12,2222.23l-13,10-4,14-23,21-6,19,5,13-7,5-1,13s-14,16-16,17-36,78-36,78l2,13s-2,11-2,12-16,13-16,13v8l4,4-.66,16.17-12.16,13.27-10.43,3.91-7.83-3.91-19.56,3.91s-26.07-13-26.07-14.34v-7.5l4.69-2.5,1-8,11-6v-8l7-7v-9l14-14-1-11,18-12-2-16,11-4,5-13v-16l9-6h3l1,4,8-2,8-18,9-4v-10l2-9-9-7-1-8h-4v-25l-11-5-1-12,8-14-1-3-20,4,1-7,4-7-5-6v-9l3-3-12-15,2-13-9-13,7-10-2-7v-5.64l11.71-2.13,5.21,5.22,13-1.31,10.43-2.6,2.61-13h6.52l10.43,9.13,9.13-2.61,18.25-2.61,10.43,2.61,5.22-3.91,14.1-1,6.95,56.9v30Z"
    transform="translate(-491.96 -318.56)" />
  <path class="cls-1" id="RNG" province="ระนอง"
    d="M845.53,2613l3.92,5.22V2626l-7.83,9.13v9.13l-6.52,13,1.31,9.12-3.91,13-5.22,5.22v2.61h7.82l5.22,3.91v6.52L826,2705.56l-2.61,7.82h-6.52l-9.13,2.61-9.13,19.56-17,18.25,5.22,11.74-1.3,11.73,7.43,4.19,12.75,7.17.68.38,3.91,13-7.82,7.82-1.31,6.52-9.13,6.52-7.82,6.52V2836l5.22,3.91v7.83H779l-5.22-5.22H766l-8.22,11.29-2.21,3-10.8-1.2-.94-.1,1.3-6.52-5.21-2.61-7.85.87,4.59-10,6.39-13.9-2-14,7-9,7,9,11-6,3-11-17-7,11.21-13.62,2.79-3.39v-9l-6-7,6-5-1-5-3-9,14-16-4-14,17-28-1-10,10-9,14-42s12-19,13-19,0-11,0-11l-4-6,1-7-7-7,2-13,16-21,5.2-.43,4.66,7.5-2.61,9.12,6.52,3.92,5.21,15.64-1.3,7.83,3.91,9.12-16.95,17,1.31,10.44Z"
    transform="translate(-491.96 -318.56)" />
  <path class="cls-1" id="CPN" province="ชุมพร"
    d="M974.09,2505.29l-3,6-8-1-5,5-5,23-9,16h-9l-6,8-4,21-16,9,9,9v5l7,7s0,10-1,10h-11l-4-4-13,1v11l-3,4,5,8h6l8,9-16,25v10l8,6-6,15,2,32-4,3v15l3.09,9.81H875.52l-7.82,1.3-9.13,5.22-9.12-2.61-7.83-9.13H832.5l-5.22,6.52h-9.13l-6.52,5.22v10.43l-5.89,3.53L793,2781.46l-7.43-4.19,1.3-11.73-5.22-11.74,17-18.25,9.13-19.56,9.13-2.61h6.52l2.61-7.82,14.34-7.82v-6.52l-5.22-3.91h-7.82v-2.61l5.22-5.22,3.91-13-1.31-9.12,6.52-13v-9.13l7.83-9.13v-7.82l-3.92-5.22-6.51-2.6-1.31-10.44,16.95-17-3.91-9.12,1.3-7.83-5.21-15.64-6.52-3.92,2.61-9.12-4.66-7.5,6.8-.56,2-9,7,3,13-10-5-10,7-16,7,7,8-5,2-10,10.32-5.49v7.5c0,1.3,26.07,14.34,26.07,14.34l19.56-3.91,7.83,3.91,10.43-3.91,12.16-13.27-.35,8.84-3,9Z"
    transform="translate(-491.96 -318.56)" />
  <path class="cls-1" id="PNA" province="พังงา"
    d="M799.9,3006.76l-5.22,23.47-1.84,1.54-6,5,3.91,7.82-3.79,6.82h-7.93l-7,11-2,.61-28,8.39,5,6-1,8,4,8-8,12-7-2-7,4-5-11-14-5v-18l-15-52,9,7,2-3-7-11v-19l10-43-5-11,6-22,15,11h7v-8l-11-8s8-13,7-15-8-13-8-13l2-9,10-4-5-13,6-13.11,7.85-.87,5.21,2.61-1.3,6.52.94.1,10.8,1.2,2.21-3,3,5.66-1.3,11.74-7.83,11.73-2.6,14.34,3.91,10.43-5.22,5.22,5.22,14.34-11.74,6.52,2.61,15.65,18.26,6.52,3.91,10.43,10.43,2.61-3.91,19.56-10.43,10.43,6.51,6.52h7.83l9.13-5.22h7.82Z"
    transform="translate(-491.96 -318.56)" />
  <path class="cls-1" id="KBI" province="กระบี่"
    d="M955.06,3145l-6.52,14.35-1.63.58-14.81,5.28-1.81.66,3.91,7.82-7.82,7.82,5.21,10.43v18.26l-6.58,5.76-3.93-5.5-7.74-1.55-2.26-.46-13-12-1-11-4,2s-5,15-6,16-12,0-13-1-5-16-4-17a4.51,4.51,0,0,0,.37-.53l-4.37-10.47v-7c0-1,5,0,5,0v8l3.06,2.29c2.78-5.64,5.94-12.29,5.94-12.29l4-13-4-2-6,12-10-8-9-1,2-18-13-4-12,8-7-7-8-1-5-7v-28l-7-7-7-20-6,9-7-1v-13l9-7-7-6H787l3.79-6.82-3.91-7.82,6-5,1.84-1.54,5.22-23.47-1.37-1.37,5.28-3.84,5.22-3.92,9.12,3.92,9.13-6.52,14.34,2.6,2.61,15.65,6.52,3.91v32.6l24.77,16.95h22.17L916,3078.48l8.54-2.14,1.89-.47,11.73,10.43-7.82,9.13,2.61,6.52-6.52,5.21,1.3,10.43s19.56-1.3,20.86,0S955.06,3145,955.06,3145Z"
    transform="translate(-491.96 -318.56)" />
  <path class="cls-1" id="SNI" province="สุราษฎร์ธานี"
    d="M1028.08,2882.89l-7.82,6.52,2.6,9.13,10.44,2.61v10.43l-9.13,3.91-1.31,14.34-10.43,10.43-19.55,2.61-6.52,9.13-3.92,15.64-3.91,19.56-13,17-1.3,13-11.74,5.22-3.91,11.73L925.07,3042,916,3060.22l8.54,16.12-8.54,2.14-18.26-11.74H875.52l-24.77-16.95v-32.6l-6.52-3.91-2.61-15.65-14.34-2.6-9.13,6.52-9.12-3.92-5.22,3.92-5.28,3.84-5.15-5.15h-7.82l-9.13,5.22H768.6l-6.51-6.52,10.43-10.43,3.91-19.56L766,2966.34l-3.91-10.43-18.26-6.52-2.61-15.65,11.74-6.52-5.22-14.34,5.22-5.22-3.91-10.43,2.6-14.34,7.83-11.73,1.3-11.74-3-5.66,8.22-11.29h7.82l5.22,5.22h10.43v-7.83l-5.22-3.91v-6.52l7.82-6.52,9.13-6.52,1.31-6.52,7.82-7.82-3.91-13-.68-.38,5.89-3.53v-10.43l6.52-5.22h9.13l5.22-6.52h9.12l7.83,9.13,9.12,2.61,9.13-5.22,7.82-1.3h23.64l2.91,9.19,12,20,1,18,16,18s-14,7-15,10-6,12-6,12l7,13,5,4,19,3,1,8,11-8s8,3,10,4,13-7,13-7l3-11,7-1,5,4,4-1.15,3-.86,12-9h20l3.2,1.91v9.37l-5.22,3.91Z"
    transform="translate(-491.96 -318.56)" />
  <path class="cls-1" id="TRG" province="ตรัง"
    d="M1067.2,3313.18l5.21,13-9.12-3.92a117.35,117.35,0,0,1-9.89,8.62c-5.28,4.1-11.84,8.39-17.5,9.64a27.5,27.5,0,0,1-16.36-1.55l6.56-6.56-15-2-1.56-2.67-8.44-14.33-1,9-7,4-15-23s-4-8-5-8-16-2-16-2-14-15-15-16-3-22-3-22l-10-13v-11l-3-14-1.07-1.49,6.58-5.76v-18.26l-5.21-10.43,7.82-7.82-3.91-7.82,1.81-.66,14.81-5.28,5.54,3.33,2.61,10.43h24.78s2.6-7.82,3.91-10.43S1002,3145,1002,3145l10.43,1.31,9.13-1.31,6.52,6.52-3.91,6.52v18.26l1.49,3.62,7.64,18.54v11.74l7.82,2.61,2.61,7.82-6.52,5.22,1.3,13,9.13,7.83v9.13l11.73,33.9,7.83,5.21,5.21,9.13Z"
    transform="translate(-491.96 -318.56)" />
  <path class="cls-1" id="NST" province="นครศรีธรรมราช"
    d="M1154.12,3161.36l-15.21,4.48-15.65,10.43h-19.55l-7.83,5.21-26.07-7.82h-9.13l-18.26-3.91-9.12,9.13-7.64,1-1.49-3.62V3158l3.91-6.52-6.52-6.52-9.13,1.31L1002,3145s-17,15.65-18.25,18.26-3.91,10.43-3.91,10.43H955.06l-2.61-10.43-5.54-3.33,1.63-.58,6.52-14.35s-5.21-26.07-6.52-27.38-20.86,0-20.86,0l-1.3-10.43,6.52-5.21-2.61-6.52,7.82-9.13-11.73-10.43-1.89.47L916,3060.22l9.12-18.25,23.47-7.83,3.91-11.73,11.74-5.22,1.3-13,13-17,3.91-19.56,3.92-15.64,6.52-9.13,19.55-2.61,10.43-10.43,1.31-14.34,9.13-3.91v-10.43l-10.44-2.61-2.6-9.13,7.82-6.52v-14.34l5.22-3.91v-9.37l1.81,1.09h9l9,17,1,17,9,17-1,40,3,4,4,32,1,22,16,15,12,27,13,8h8l3-18,8,10,11,38,7,40,4.56,27.4Z"
    transform="translate(-491.96 -318.56)" />
  <path class="cls-1" id="STN" province="สตูล"
    d="M1124.57,3408.36l5.21,7.82v6.94c-2.58-2.57-5.65-5.66-5.65-5.66l-5.29,4.62-2.72,2.38,3,3v8l-3,4,4,11-5,1-1,22-4,16-7-26,3-6-2-1h-6l-5,3-8-4-3-7v-8l-9-7-6-1-4-13-10-1-19-19-4-9-9-2-6-11-5-29,9.44-9.44a27.5,27.5,0,0,0,16.36,1.55c5.66-1.25,12.22-5.54,17.5-9.64a117.35,117.35,0,0,0,9.89-8.62l9.12,3.92,6,12,1.84,3.67,6.52,3.91,8-4.55,1.16-.66v17l5.22,9.13v6.52l10.43,11.73h14.34c1.31,0,6.52,9.13,6.52,9.13Z"
    transform="translate(-491.96 -318.56)" />
  <path class="cls-1" id="PLG" province="พัทลุง"
    d="M1175.42,3300.14l-3.91,10.43-6.52-10.43-3.91,2.61L1152,3319.7l-23.47,6.52-13,7.82-9.13-1.3-9.12,3.91-2.47,4.57-8,4.55-6.52-3.91-1.84-3.67-6-12-5.21-13,5.21-9.13-5.21-9.13-7.83-5.21-11.73-33.9v-9.13l-9.13-7.83-1.3-13,6.52-5.22-2.61-7.82-7.82-2.61v-11.74l-7.64-18.54,7.64-1,9.12-9.13,18.26,3.91h9.13l26.07,7.82,7.83-5.21h17l5.21,9.12v7.83l6.52,10.43,2.61,24.77s-3.91,15.65-2.61,16.95,6.52,13,7.83,13h10.43l10.43-6.52,6.52,6.52-2.61,14.35,5.22,3.91Z"
    transform="translate(-491.96 -318.56)" />
  <path class="cls-1" id="SKA" province="สงขลา"
    d="M1325.37,3452.69l-.43,1.06-4.79,12-9.12,7.83,1.3,9.12-15.65-1.3-10.43,7.82-1.3,9.13,3.91,7.82v8.77l-5.71,8.56h-9l-5-5-5,5-8-43-8-5h-5l-2.57-7.69-.43-1.3-7,8-10,5-5-1-14-9-13-1-4-6h-20l-6-2-15-16,5-3-1-11-5-1-2-9h-8s-1,7-2,6l-3.34-3.34v-6.94l-5.21-7.82,7.82-14.34s-5.21-9.13-6.52-9.13h-14.34l-10.43-11.73v-6.52l-5.22-9.13v-17l-1.16.66,2.47-4.57,9.12-3.91,9.13,1.3,13-7.82,23.47-6.52,9.13-16.95,3.91-2.61,6.52,10.43,3.91-10.43-5.21-23.47-5.22-3.91,2.61-14.35-6.52-6.52-10.43,6.52h-10.43c-1.31,0-6.52-11.73-7.83-13s2.61-16.95,2.61-16.95l-2.61-24.77-6.52-10.43v-7.83l-5.21-9.12h2.6l15.65-10.43,15.21-4.48,2,12,18,69,12,35,10,23,5,6h4l8,8,11,19,15,22,17,14h10l14,11s8.58,4.51,14.51,7.78l.59.34,1.25.69,1.63.93a14.62,14.62,0,0,1,2,1.26c.61.6,12.92.47,22.55.29l-10.37,11.4v10.43l-6.52,10.43,10.43,9.13v9.12Z"
    transform="translate(-491.96 -318.56)" />
  <path class="cls-1" id="NWT" province="นราธิวาส"
    d="M1529.19,3530.48l1,10-2,13s-6,9-8,9-16,10-17,12-7,19-7,19l5,8s-3,9-6,9-8-1-8,0-1,11-2,11-10-1-9,0-1,12-1,12l-15-14-7,1-3,3-1,5s-4,1-4,0,1-6,0-6-6-8-6-8l-1-12-8-1v-7l-3.51-2.19-4.49-2.8-13,6-1.66,1.89v-18.22l-10.43-20.86-14.34-7.82v-19.56l7.82-10.43-1.3-18.26,3.91-16.95,26.08-5.21L1431,3471l-2.28-5.32,3.59-1.2-2.61-14.34,10.43-1.31s9.13,13,10.43,13c.6,0,4.76-.27,9.1-.57l5.55,9.23,11,9,6.53,3.26,5.47,2.73,8,11,14,13h5l6,6,11,8Z"
    transform="translate(-491.96 -318.56)" />
  <path class="cls-1" id="PTN" province="ปัตตานี"
    d="M1459.64,3461.25c-4.34.3-8.5.57-9.1.57-1.3,0-10.43-13-10.43-13l-10.43,1.31,2.61,14.34-3.59,1.2-4.23,1.41-7.83-2.61-3.91-9.13-11.73,5.22-10.44-1.31-15.64,7.83-9.13-9.13v-18.26l-17,18.26-23.9-4.16.43-1.06-9.13-10.43v-9.12l-10.43-9.13,6.52-10.43v-10.43l10.37-11.4c6.29-.13,11.46-.29,11.46-.29l14-10h9l12,6,4-6h10l4,3,18,2,13,5,16,29,4.88,7.69,14.12,22.31Z"
    transform="translate(-491.96 -318.56)" />
  <path class="cls-1" id="YLA" province="ยะลา"
    d="M1393.17,3485.29l-3.91,16.95,1.3,18.26-7.82,10.43v19.56l14.34,7.82,10.43,20.86v18.22l-5.34,6.11-22,1-10,14-18-1v6c0,1-2,2-2,2v18h-5l-2,2-1,5h-6l-2,3h-2l-6,7-2-10-14-20-8,1-9-10v-6l7-4,1-15,14-1,8-15-5-4v-16h3l1-9-12-6-1-4,8-5,6-3-3-13-8-2h-5l-7,5-11-9-.29.43v-8.77l-3.91-7.82,1.3-9.13,10.43-7.82,15.65,1.3-1.3-9.12,9.12-7.83,4.79-12,23.9,4.16,17-18.26v18.26l9.13,9.13,15.64-7.83,10.44,1.31,11.73-5.22,3.91,9.13,7.83,2.61,4.23-1.41L1431,3471l-11.73,9.13Z"
    transform="translate(-491.96 -318.56)" />
  <path class="cls-6" id="TRT_KOH_CHANG" province="เกาะช้าง"
    d="M1601.8,2253.11l14.34,2.61,9.13,9.12,13,22.17v6.52l-7.82-7.82-3.91,1.3,5.22,7.82s-6.52,2.61-9.13,2.61-14.35-7.82-14.35-7.82l-1.3-18.26-5.21-7.82Z"
    transform="translate(-491.96 -318.56)" />

  <polygon class="cls-4" id="NYK" province="นครนายก"
    points="918.16 1418.2 918.16 1433.85 907.73 1436.46 893.39 1435.16 892.09 1441.67 897.3 1444.28 897.3 1449.5 881.66 1452.11 872.53 1465.14 879.05 1482.1 854.27 1484.7 849.06 1493.83 838.63 1496.44 835.76 1502.89 803.42 1501.65 802.78 1501.82 802.42 1501.93 789.08 1505.57 789.08 1446.89 798.21 1439.07 798.21 1428.64 799.76 1428.83 808.64 1429.94 821.68 1418.2 820.37 1402.56 839.93 1412.99 846.45 1418.2 854.27 1412.99 851.67 1405.17 852.97 1398.65 858.19 1397.34 860.79 1386.91 871.23 1381.7 891.4 1398.31 893.39 1399.95 903.82 1407.77 918.16 1418.2" />
  <polygon class="cls-4" id="SBR" province="สิงห์บุรี"
    points="692.59 1308.68 692.59 1334.94 678.25 1330.84 659.99 1316.5 652.17 1319.11 634.71 1314.12 635.22 1312.59 633.91 1303.46 635.69 1296.36 636.52 1293.03 625.93 1282.44 631.31 1278.69 645.65 1278.69 645.65 1264.35 639.13 1260.43 644.35 1255.22 653.47 1255.22 656.08 1247.39 665.29 1241.25 666.51 1247.39 679.55 1255.22 683.46 1250.74 689.98 1259.13 684.77 1270.86 687.38 1278.69 682.16 1290.42 684.72 1294.88 692.59 1308.68" />
  <polygon class="cls-4" id="SPK" province="สมุทรปราการ"
    points="795.6 1582.5 779.95 1600.75 778.03 1611.29 777.19 1610.62 760.18 1610.62 757.19 1609.62 741.19 1609.62 726.18 1602.62 719.18 1602.62 714.18 1607.62 703.18 1608.61 701.17 1610.62 687.69 1610.62 688.68 1600.75 686.07 1590.32 689.98 1586.41 695.2 1591.62 701.72 1591.62 704.33 1583.8 703.02 1575.98 708.24 1570.76 710.85 1565.55 716.06 1565.55 718.67 1573.37 726.49 1577.28 742.14 1575.98 746.05 1560.33 776.37 1565.06 776.04 1565.55 781.92 1570.64 795.6 1582.5" />
  <polygon points="568.86 248.53 568.72 248.61 568.55 248.4 568.56 248.4 568.86 248.53" fill="" id="" province="" />
  <polygon class="cls-2" points="568.72 248.61 568.55 248.4 568.56 248.4 568.72 248.61" fill="" id="" province="" />
  <polygon class="cls-2" points="568.86 248.53 568.72 248.61 568.55 248.4 568.56 248.4 568.86 248.53" fill="" id=""
    province="" />
  <polygon class="cls-5" id="KSN" province="กาฬสินธุ์"
    points="1524.27 939.06 1523.17 940.98 1506.22 938.37 1480.14 948.8 1477.54 938.37 1472.32 937.07 1454.07 940.98 1443.64 931.85 1430.6 930.55 1403.21 950.11 1407.13 957.93 1414.95 970.97 1412.34 987.92 1396.69 987.92 1392.91 993.21 1390.18 997.05 1383.66 991.83 1374.53 994.44 1368.01 989.22 1360.19 994.44 1351.06 991.83 1338.02 981.4 1339.32 973.58 1327.59 968.36 1327.59 957.93 1315.85 955.32 1313.25 947.5 1300.21 951.41 1293.69 955.32 1287.17 955.32 1287.17 947.5 1291.08 938.37 1287.17 930.55 1288.47 917.51 1287.17 907.08 1291.08 894.04 1283.56 891.53 1283.26 891.43 1282.47 876.59 1281.95 866.66 1288.47 858.83 1288.47 843.19 1284.56 840.58 1281.95 847.1 1272.83 851.01 1274.13 843.19 1276.74 834.06 1271.7 829.52 1274.13 821.02 1280.65 818.41 1288.47 821.02 1294.99 821.02 1298.9 818.41 1304.12 819.72 1309.33 824.93 1310.19 825.22 1324.98 830.15 1334.11 831.45 1339.32 836.67 1343.23 853.62 1351.06 844.49 1360.19 826.24 1364.1 806.68 1361.49 798.85 1370.62 787.12 1384.96 788.42 1390.18 797.55 1393.61 802.11 1394.09 804.07 1405.82 801.46 1408.43 806.68 1409.73 813.2 1414.95 813.2 1422.77 821.02 1424.08 837.97 1433.2 839.27 1435.81 845.79 1460.59 860.14 1460.59 851.01 1473.63 843.19 1481.45 843.19 1487.97 851.01 1487.97 854.92 1501.01 864.05 1501.01 873.18 1510.13 887.52 1510.13 899.25 1521.87 917.51 1521.87 931.85 1524.27 939.06" />
  <polygon class="cls-5" points="1675.73 1120.92 1675.73 1124.83 1675 1120.43 1675.73 1120.92" fill="" id=""
    province="" />
  <polygon class="cls-6" id="RYG" province="ระยอง"
    points="989.88 1762.43 983.36 1785.9 980.52 1794.42 973.23 1789.66 963.23 1791.65 951.22 1803.66 934.22 1803.66 932.22 1808.66 921.22 1808.66 919.22 1805.66 907.21 1805.66 904.21 1815.66 896.21 1814.65 887.21 1806.66 873.22 1801.99 866.21 1799.66 835.2 1798.66 829.2 1795.66 820.2 1797.65 819.2 1800.65 804.66 1802.59 802.12 1792.42 812.55 1778.08 809.94 1768.95 820.37 1762.43 829.5 1737.66 825.59 1724.62 826.89 1716.8 837.32 1720.71 846.45 1712.89 849.06 1705.06 867.31 1708.97 881.66 1705.06 893.39 1718.1 925.99 1710.28 936.42 1693.33 948.15 1686.81 960.88 1689.19 958.59 1693.33 961.19 1715.49 972.93 1719.4 967.71 1732.44 972.93 1740.27 982.06 1740.27 989.88 1762.43" />
  <polygon class="cls-6" id="CBI" province="ชลบุรี"
    points="967.91 1681.31 965.11 1681.59 961.65 1687.8 960.88 1689.19 948.15 1686.81 936.42 1693.33 925.99 1710.28 893.39 1718.1 881.66 1705.06 867.31 1708.97 849.06 1705.06 846.45 1712.89 837.32 1720.71 826.89 1716.8 825.59 1724.62 829.5 1737.66 820.37 1762.43 809.94 1768.95 812.55 1778.08 802.12 1792.42 804.66 1802.59 804.19 1802.66 801.19 1815.66 798.19 1813.66 792.2 1812.66 793.2 1802.66 777.19 1800.65 778.19 1778.65 787.19 1773.65 789.2 1756.64 778.19 1745.64 780.19 1732.64 792.2 1724.65 791.19 1714.65 784.19 1705.64 784.19 1696.64 795.19 1677.63 789.2 1661.63 788.19 1653.62 792.2 1647.63 803.2 1641.63 803.85 1627.32 803.97 1624.65 812.55 1612.49 822.98 1607.27 820.37 1596.84 838.63 1590.32 860.79 1594.23 886.87 1617.7 924.68 1629.44 931.2 1648.99 955.98 1662.03 967.91 1681.31" />
  <polygon class="cls-4" id="SKN" province="สมุทรสาคร"
    points="678.25 1600.75 677.26 1612.62 658.17 1612.62 654.16 1610.62 648.17 1610.62 646.17 1616.62 638.17 1617.62 630.16 1619.62 622.17 1622.62 613.61 1624.95 611.16 1625.63 606.53 1630.24 606.53 1625.53 596.85 1611.52 594.8 1608.57 594.85 1607.77 596.1 1586.41 602.62 1575.98 614.36 1575.98 614.36 1570.76 617.63 1570.11 633.91 1566.85 633.91 1572.07 640.43 1572.07 650.87 1569.46 646.95 1564.24 660.27 1561.39 661.3 1562.94 662.29 1573.81 662.6 1577.28 670.42 1585.1 673.03 1594.23 678.25 1600.75" />
</svg>